<svg width="158" height="37" viewBox="0 0 158 37" fill="none" xmlns="http://www.w3.org/2000/svg">
<g clip-path="url(#clip0_9718_9832)">
<path fill-rule="evenodd" clip-rule="evenodd" d="M37.3815 18.5045C37.3815 28.7242 29.1253 37.0089 18.9407 37.0089C8.7562 37.0089 0.5 28.7242 0.5 18.5045C0.5 8.28473 8.7562 0 18.9407 0C29.1253 0 37.3815 8.28473 37.3815 18.5045ZM27.8447 27.6651C29.1269 26.4946 30.1331 25.1007 30.8721 23.4746H25.7077C25.4494 23.832 25.1556 24.1715 24.8439 24.4842C23.3925 25.9317 21.5939 26.6554 19.2343 26.6554C16.8746 26.6554 14.9157 25.8245 13.3663 24.1536C11.8793 22.5632 11.1403 20.66 11.1403 18.4173C11.1403 16.1746 11.8704 14.2536 13.3396 12.6632C14.889 11.0102 16.8568 10.1792 19.2343 10.1792C21.4781 10.1792 23.3658 10.9744 24.8974 12.5649L14.4794 22.179L31.1036 13.6013C28.5303 8.6692 24.5946 6.20312 19.2877 6.20312C15.6993 6.20312 12.6629 7.40042 10.1608 9.81288C7.65871 12.2253 6.41211 15.1024 6.41211 18.462C6.41211 21.8216 7.6409 24.6987 10.1074 27.1111C12.6095 29.5683 15.8061 30.7924 19.2343 30.7924C22.6624 30.7924 25.5385 29.7559 27.8447 27.6651ZM26.6871 19.5163C26.6871 18.3012 27.6221 17.3183 28.7796 17.3183C29.9372 17.3183 30.8721 18.3012 30.8721 19.5163C30.8721 20.7315 29.9372 21.7144 28.7796 21.7144C27.6221 21.7144 26.6871 20.7315 26.6871 19.5163Z" fill="url(#paint0_linear_9718_9832)"/>
<path fill-rule="evenodd" clip-rule="evenodd" d="M56.052 30.4491C53.5321 30.4491 51.4841 30.0023 49.8813 29.1178C48.2874 28.2243 47.1121 27.0091 46.3641 25.4455C45.6162 23.8908 45.2422 22.1037 45.2422 20.0934C45.2422 18.083 45.5895 16.3049 46.2929 14.7591C46.9963 13.2134 48.047 12.0072 49.4539 11.1405C50.8519 10.2738 52.5971 9.83594 54.6807 9.83594C56.4527 9.83594 57.9753 10.1576 59.2397 10.792C60.5041 11.4264 61.4747 12.3824 62.1514 13.6691C62.8281 14.9468 63.1665 16.564 63.1665 18.5119C63.1665 19.039 63.1487 19.5037 63.1309 19.9057C63.1041 20.3078 63.0596 20.7188 62.9973 21.1209L62.9738 21.112H50.9877C51.0695 21.8694 51.2587 22.5425 51.5553 23.1313C51.9649 23.9444 52.5971 24.5609 53.4608 24.9987C54.3245 25.4276 55.4198 25.642 56.7643 25.642C57.2808 25.642 57.8862 25.5973 58.5719 25.4991C59.2575 25.4008 59.952 25.2489 60.6644 25.0523C61.3767 24.8557 62.0356 24.5877 62.65 24.275L62.8459 29.216C62.3384 29.4484 61.7507 29.6628 61.074 29.8504C60.3972 30.0381 59.6404 30.19 58.7945 30.2972C57.9486 30.4044 57.0314 30.4669 56.0609 30.4669L56.052 30.4491ZM51.0344 17.8998L58.0616 17.7493C57.9999 16.6312 57.693 15.7387 57.1472 15.0719C56.5239 14.3213 55.7314 13.9461 54.7519 13.9461C54.0129 13.9461 53.354 14.1694 52.7752 14.6072C52.2053 15.0451 51.7512 15.6526 51.4307 16.4389C51.2459 16.8799 51.1143 17.3658 51.0344 17.8998Z" fill="white"/>
<path d="M75.383 30.382C73.1658 30.382 71.287 29.9442 69.7555 29.0597C68.2151 28.1751 67.0486 26.9689 66.2383 25.441C65.428 23.9131 65.0273 22.1618 65.0273 20.205C65.0273 18.2483 65.4013 16.4612 66.1493 14.8976C66.8972 13.334 68.0103 12.1099 69.4884 11.2074C70.9665 10.3139 72.8097 9.86719 75.009 9.86719C75.7926 9.86719 76.5673 9.92973 77.3241 10.0459C78.081 10.162 78.8111 10.3229 79.4879 10.5373C80.1646 10.7518 80.7701 10.993 81.3043 11.2789L80.8769 16.3362C80.1379 15.9073 79.4523 15.5856 78.8379 15.3622C78.2146 15.1478 77.6625 15.0048 77.1639 14.9334C76.6652 14.8619 76.2289 14.8261 75.8371 14.8261C74.3679 14.8261 73.1926 15.2908 72.311 16.2289C71.4295 17.1671 70.9932 18.427 70.9932 20.0263C70.9932 21.1075 71.2158 22.0725 71.6521 22.9034C72.0884 23.7344 72.7295 24.3866 73.5843 24.8512C74.4392 25.3248 75.4899 25.5571 76.7365 25.5571C77.2173 25.5571 77.6981 25.5124 78.1789 25.4231C78.6598 25.3337 79.1406 25.1908 79.6125 25.0121C80.0844 24.8334 80.5386 24.5921 80.9749 24.3062L81.2687 29.3634C80.8235 29.56 80.316 29.7298 79.7372 29.8817C79.1584 30.0336 78.5084 30.1497 77.7961 30.248C77.0837 30.3463 76.2734 30.382 75.3919 30.382H75.383Z" fill="white"/>
<path fill-rule="evenodd" clip-rule="evenodd" d="M88.9792 29.6349C90.2881 30.1978 91.8285 30.4748 93.6005 30.4748L93.5916 30.4926C95.782 30.4926 97.643 30.0369 99.1656 29.1256C100.688 28.2142 101.855 26.9812 102.647 25.4175C103.44 23.8539 103.84 22.0848 103.84 20.1101C103.84 18.6716 103.627 17.3313 103.199 16.0804C102.772 14.8295 102.122 13.7394 101.258 12.8012C100.394 11.8631 99.3081 11.1393 98.017 10.6211C96.7259 10.1029 95.2122 9.84375 93.4936 9.84375C91.2676 9.84375 89.3888 10.2905 87.8572 11.184C86.3257 12.0864 85.1681 13.3105 84.3757 14.8563C83.5832 16.4021 83.1914 18.1533 83.1914 20.1012C83.1914 21.4593 83.4051 22.7638 83.8236 24.0147C84.2421 25.2656 84.8832 26.3736 85.738 27.3386C86.5839 28.3035 87.6702 29.072 88.9792 29.6349ZM95.9957 24.8904C95.3635 25.4175 94.5621 25.6856 93.5827 25.6856V25.6945C92.6121 25.6945 91.7929 25.4265 91.134 24.8993C90.4751 24.3632 89.9765 23.6752 89.647 22.8264C89.3175 21.9775 89.1484 21.0662 89.1484 20.1012C89.1484 19.0647 89.3086 18.1444 89.647 17.3134C89.9854 16.4825 90.4751 15.8302 91.134 15.3477C91.7929 14.8652 92.6032 14.624 93.5649 14.624C94.4286 14.624 95.1854 14.8384 95.8355 15.2673C96.4855 15.7051 96.993 16.3306 97.3581 17.1437C97.7143 17.9568 97.9012 18.9396 97.9012 20.0922C97.9012 21.0572 97.741 21.9686 97.4204 22.8174C97.0999 23.6752 96.6279 24.3632 95.9957 24.8904Z" fill="white"/>
<path d="M106.814 29.9398V10.3631L111.721 10.0682L111.979 13.4636H112.469C112.914 12.8381 113.43 12.2484 114.036 11.6855C114.641 11.1226 115.327 10.6848 116.119 10.3452C116.912 10.0057 117.802 9.83594 118.808 9.83594C120.304 9.83594 121.471 10.2112 122.299 10.9618C122.983 11.5819 123.479 12.4277 123.796 13.4993H124.133C124.605 12.856 125.148 12.2573 125.772 11.6944C126.395 11.1315 127.116 10.6848 127.935 10.3452C128.755 10.0057 129.663 9.83594 130.678 9.83594C132.619 9.83594 134.07 10.4257 135.023 11.5872C135.985 12.7577 136.457 14.4822 136.457 16.7606V29.9398H130.624V18.6459C130.624 17.4933 130.446 16.6266 130.099 16.0458C129.752 15.465 129.111 15.1702 128.185 15.1702C127.65 15.1702 127.161 15.2863 126.715 15.5097C126.27 15.742 125.87 16.0458 125.496 16.43C125.171 16.7632 124.88 17.1301 124.623 17.5305V29.9398H118.782V18.6459C118.782 17.4933 118.604 16.6266 118.248 16.0458C117.891 15.465 117.25 15.1702 116.342 15.1702C115.808 15.1702 115.318 15.2863 114.873 15.5186C114.428 15.7509 114.027 16.0637 113.662 16.4479C113.297 16.8321 112.967 17.252 112.682 17.7166V29.9398H106.814Z" fill="white"/>
<path d="M139.752 27.2008V29.9439H157.498V25.4942H147.795L151.791 20.3119L151.979 20.0661C152.492 19.3991 153.025 18.7046 153.58 17.9888C153.989 17.4541 154.393 16.9312 154.789 16.4202C154.988 16.1627 155.185 15.9082 155.379 15.6567C155.967 14.9062 156.483 14.2361 156.937 13.6463V10.3672H139.93V14.8168H149.194L145.246 19.9992C144.893 20.4606 144.535 20.9297 144.171 21.4065C143.655 22.0835 143.127 22.776 142.584 23.4838C141.657 24.6901 140.714 25.932 139.752 27.2008Z" fill="white"/>
</g>
<defs>
<linearGradient id="paint0_linear_9718_9832" x1="13" y1="-0.5" x2="18.9407" y2="37" gradientUnits="userSpaceOnUse">
<stop stop-color="#F77E61"/>
<stop offset="1" stop-color="#F75064"/>
</linearGradient>
<clipPath id="clip0_9718_9832">
<rect width="157" height="37" fill="white" transform="translate(0.5)"/>
</clipPath>
</defs>
</svg>
