<svg width="213" height="212" viewBox="0 0 213 212" fill="none" xmlns="http://www.w3.org/2000/svg">
<path fill-rule="evenodd" clip-rule="evenodd" d="M209.477 106.001C209.477 163.071 163.372 209.335 106.498 209.335C49.6246 209.335 3.51953 163.071 3.51953 106.001C3.51953 48.9305 49.6246 2.66602 106.498 2.66602C163.372 2.66602 209.477 48.9305 209.477 106.001ZM156.221 157.157C163.381 150.62 169 142.837 173.127 133.756H144.287C142.845 135.751 141.204 137.647 139.464 139.394C131.359 147.477 121.315 151.519 108.138 151.519C94.961 151.519 84.0217 146.878 75.3697 137.548C67.0658 128.666 62.9387 118.038 62.9387 105.514C62.9387 92.9905 67.016 82.2629 75.2205 73.3814C83.8725 64.1507 94.8615 59.5103 108.138 59.5103C120.668 59.5103 131.21 63.9511 139.762 72.8326L81.5852 126.521L174.42 78.6205C160.05 51.0779 138.072 37.3066 108.436 37.3066C88.3974 37.3066 71.4415 43.9927 57.469 57.4646C43.4965 70.9365 36.5352 87.003 36.5352 105.764C36.5352 124.525 43.3971 140.591 57.1707 154.063C71.1431 167.785 88.9941 174.62 108.138 174.62C127.282 174.62 143.343 168.832 156.221 157.157ZM149.757 111.652C149.757 104.866 154.978 99.3772 161.442 99.3772C167.906 99.3772 173.127 104.866 173.127 111.652C173.127 118.437 167.906 123.926 161.442 123.926C154.978 123.926 149.757 118.437 149.757 111.652Z" fill="url(#paint0_linear_11704_65333)"/>
<defs>
<linearGradient id="paint0_linear_11704_65333" x1="73.3233" y1="-0.126136" x2="106.498" y2="209.285" gradientUnits="userSpaceOnUse">
<stop stop-color="#F77E61"/>
<stop offset="1" stop-color="#F75064"/>
</linearGradient>
</defs>
</svg>
