<svg width="649" height="566" viewBox="0 0 649 566" fill="none" xmlns="http://www.w3.org/2000/svg">
<g clip-path="url(#clip0_11713_39580)">
<path d="M321.687 502.33C453.139 502.33 559.702 395.536 559.702 263.799C559.702 132.062 453.139 25.2676 321.687 25.2676C190.235 25.2676 83.6719 132.062 83.6719 263.799C83.6719 395.536 190.235 502.33 321.687 502.33Z" fill="#F75164"/>
<path opacity="0.3" d="M303.782 508.052C164.448 508.052 51.4961 516.344 51.4961 526.573C51.4961 529.627 61.5704 532.509 79.4083 535.048C76.7827 537.129 75.3782 539.321 75.3782 541.583C75.3782 555.134 125.673 566.118 187.717 566.118C244.309 566.118 291.124 556.979 298.914 545.09C300.534 545.091 302.156 545.093 303.784 545.093C443.118 545.093 556.07 536.802 556.07 526.572C556.07 516.342 443.118 508.051 303.784 508.051L303.782 508.052Z" fill="#242A38"/>
<path d="M577.474 341.181C577.474 341.181 565.501 336.757 557.269 340.956L556.17 344.192L555.828 370.829L577.598 371.109L577.943 344.257C577.763 343.325 577.606 342.305 577.474 341.183V341.181Z" fill="#F77B61"/>
<path opacity="0.6" d="M577.599 371.107L574.025 371.062L574.88 304.441L556.684 304.207L556.69 303.643L578.46 303.923L577.599 371.107Z" fill="white"/>
<path opacity="0.3" d="M564.092 370.933L564.938 304.927L578.444 305.1L578.459 303.923L556.689 303.643L555.828 370.826L564.092 370.933Z" fill="#242A38"/>
<path opacity="0.3" d="M566.822 364.8L575.205 371.078L577.599 371.108L577.616 369.777L569.033 363.349L577.773 357.619L577.811 354.576L569.858 348.53L577.869 343.852C577.721 343.03 577.588 342.145 577.474 341.184C577.474 341.184 575.845 340.583 573.376 340.033L575.838 342.16L567.715 346.904L558.945 340.237C558.374 340.442 557.812 340.681 557.269 340.958L556.966 341.853L565.394 348.259L556.048 353.716L556.01 356.704L564.706 363.217L555.851 369.023L555.828 370.831L557.594 370.854L566.822 364.804V364.8ZM558.274 355.293L567.535 349.886L575.639 356.046L566.915 361.767L558.274 355.295V355.293Z" fill="#242A38"/>
<path d="M577.598 373.928C577.587 373.928 577.574 373.928 577.562 373.928C576.007 373.908 574.765 372.629 574.785 371.072L575.126 344.501C574.953 343.566 574.803 342.561 574.68 341.511C574.498 339.963 575.603 338.563 577.147 338.381C578.69 338.2 580.089 339.306 580.271 340.853C580.391 341.875 580.537 342.84 580.707 343.72C580.744 343.909 580.761 344.099 580.759 344.291L580.414 371.143C580.394 372.688 579.138 373.928 577.6 373.928H577.598Z" fill="#242A38"/>
<path d="M555.83 373.647C555.818 373.647 555.805 373.647 555.793 373.647C554.239 373.627 552.996 372.348 553.016 370.79L553.357 344.153C553.361 343.856 553.412 343.562 553.507 343.28L554.607 340.046C555.108 338.571 556.706 337.782 558.179 338.284C559.65 338.787 560.436 340.388 559.936 341.864L558.982 344.674L558.645 370.862C558.625 372.406 557.369 373.647 555.831 373.647H555.83Z" fill="#242A38"/>
<path d="M582.838 375.058C582.797 372.088 580.129 369.717 576.881 369.762L555.044 370.066C551.794 370.111 549.193 372.556 549.235 375.526L549.333 382.577C549.375 385.547 552.042 387.918 555.291 387.873L577.127 387.569C580.377 387.524 582.978 385.079 582.936 382.109L582.838 375.058Z" fill="#B4BFCC"/>
<path opacity="0.3" d="M555.827 375.249L555.924 382.299C555.966 385.27 558.633 387.641 561.882 387.596L578.651 387.363C578.165 387.49 577.654 387.562 577.125 387.569L555.289 387.873C552.039 387.918 549.371 385.547 549.332 382.577L549.235 375.526C549.193 372.556 551.796 370.111 555.044 370.066L560.109 369.996C557.61 370.646 555.791 372.763 555.826 375.25L555.827 375.249Z" fill="#242A38"/>
<path opacity="0.6" d="M582.837 375.059L582.935 382.109C582.977 385.08 580.374 387.524 577.126 387.569L555.289 387.873C554.586 387.883 553.912 387.779 553.285 387.582L573.697 387.299C576.947 387.254 579.548 384.809 579.506 381.839L579.408 374.788C579.376 372.461 577.729 370.501 575.455 369.784L576.879 369.764C580.129 369.719 582.797 372.09 582.837 375.06V375.059Z" fill="white"/>
<path d="M555.201 390.693C552.973 390.693 550.862 389.905 549.243 388.464C547.519 386.932 546.551 384.853 546.521 382.614L546.423 375.563C546.361 371.044 550.211 367.312 555.008 367.245L576.844 366.941C576.887 366.941 576.93 366.941 576.975 366.941C579.203 366.941 581.314 367.729 582.933 369.17C584.657 370.703 585.625 372.78 585.655 375.021L585.754 382.071C585.815 386.591 581.965 390.323 577.169 390.389L555.332 390.693C555.289 390.693 555.246 390.693 555.201 390.693ZM576.974 372.583C576.957 372.583 576.939 372.583 576.922 372.583L555.086 372.887C553.393 372.91 552.032 374.077 552.05 375.486L552.149 382.537C552.157 383.172 552.452 383.778 552.978 384.245C553.578 384.778 554.386 385.063 555.254 385.053L577.09 384.75C578.783 384.726 580.144 383.559 580.126 382.15L580.028 375.099C580.019 374.465 579.724 373.859 579.198 373.391C578.611 372.869 577.823 372.583 576.974 372.583Z" fill="#242A38"/>
<path d="M556.341 298.161L545.273 2.9375C549.683 5.19816 556.351 9.24364 562.4 15.8887C562.453 15.9471 562.505 16.0039 562.557 16.0624C568.599 22.7575 572.078 30.8702 572.801 39.27C575.791 74.0431 577.232 110.681 578.683 148.997C581.031 211.018 581.464 279.251 573.805 304.103L556.341 298.161Z" fill="white"/>
<path opacity="0.3" d="M545.273 2.9375C547.304 3.97767 549.813 5.39851 552.521 7.27516L563.391 297.242L574.647 301.073C574.379 302.143 574.099 303.155 573.805 304.101L556.341 298.159L545.273 2.9375Z" fill="#242A38"/>
<path opacity="0.6" d="M573.169 147.431C571.718 109.115 570.277 72.4767 567.286 37.7036C566.563 29.3038 563.085 21.1928 557.042 14.496C556.99 14.4375 556.937 14.3808 556.885 14.3223C553.039 10.0949 548.942 6.92259 545.335 4.58847L545.273 2.93555C549.683 5.19621 556.351 9.24169 562.4 15.8884C562.453 15.9469 562.505 16.0036 562.557 16.0621C568.599 22.7572 572.078 30.8699 572.801 39.2697C575.791 74.0428 577.232 110.681 578.683 148.997C581.031 211.018 581.464 279.25 573.805 304.103L568.376 302.256C575.946 277.175 575.508 209.222 573.169 147.432V147.431Z" fill="white"/>
<path d="M573.807 306.923C573.502 306.923 573.197 306.873 572.902 306.772L555.438 300.83C554.333 300.455 553.573 299.434 553.53 298.266L542.463 3.04413C542.426 2.04403 542.919 1.09903 543.762 0.559744C544.604 0.0221279 545.668 -0.0296302 546.558 0.426175C553.497 3.98246 559.528 8.54552 564.482 13.9885L564.647 14.1705C571.028 21.2413 574.818 29.8365 575.608 39.0277C578.7 74.9846 580.186 114.247 581.499 148.89C582.863 184.954 583.307 215.792 582.813 240.544C582.194 271.682 580.068 293.345 576.498 304.934C576.273 305.662 575.765 306.268 575.088 306.614C574.688 306.819 574.249 306.923 573.809 306.923H573.807ZM559.083 296.114L571.896 300.473C577.422 278.568 578.8 226.43 575.873 149.104C574.563 114.526 573.081 75.3335 569.999 39.5119C569.315 31.5578 566.02 24.103 560.471 17.9538L560.322 17.7885C556.87 13.9951 552.832 10.6676 548.277 7.85764L559.083 296.112V296.114Z" fill="#242A38"/>
<path d="M545.501 291.845C559.402 295.106 573.885 294.844 587.638 291.097C589.439 290.608 590.493 288.933 590.012 287.442C589.58 286.068 589.147 284.694 588.716 283.32C588.234 281.826 586.585 281.021 585.014 281.448C572.859 284.757 560.057 284.988 547.769 282.104C546.181 281.734 544.557 282.595 544.132 284.105C543.75 285.494 543.369 286.883 542.989 288.272C542.562 289.78 543.684 291.417 545.503 291.843L545.501 291.845Z" fill="#5F77F7"/>
<path opacity="0.6" d="M588.473 290.39C588.079 289.004 587.684 287.62 587.289 286.234C586.849 284.728 585.183 283.888 583.554 284.284C570.947 287.348 557.741 287.233 545.131 283.903C544.833 283.825 544.539 283.802 544.246 283.802C544.798 282.486 546.287 281.758 547.763 282.104C560.051 284.987 572.853 284.757 585.008 281.447C586.579 281.022 588.229 281.826 588.71 283.319C589.142 284.693 589.575 286.067 590.006 287.441C590.398 288.664 589.761 289.994 588.522 290.712C588.507 290.605 588.5 290.497 588.47 290.39H588.473Z" fill="white"/>
<path opacity="0.3" d="M547.765 282.104C549.264 282.456 550.77 282.761 552.283 283.02C552.042 284.436 551.802 285.854 551.56 287.269C551.287 288.812 552.505 290.32 554.287 290.554C566.243 292.125 578.434 291.076 590.006 287.431C590.006 287.435 590.008 287.438 590.01 287.443C590.491 288.934 589.438 290.609 587.636 291.098C573.883 294.844 559.4 295.105 545.499 291.846C543.678 291.42 542.559 289.782 542.985 288.274C543.365 286.885 543.747 285.496 544.128 284.107C544.555 282.596 546.177 281.735 547.765 282.105V282.104Z" fill="#242A38"/>
<path d="M565.086 296.923C558.29 296.923 551.494 296.147 544.857 294.589C543.156 294.192 541.695 293.138 540.849 291.699C540.086 290.402 539.881 288.916 540.272 287.515C540.652 286.128 541.032 284.742 541.413 283.354C541.413 283.348 541.417 283.343 541.418 283.336C542.251 280.382 545.319 278.634 548.404 279.356C560.194 282.122 572.596 281.903 584.271 278.724C587.323 277.896 590.449 279.533 591.39 282.451C591.392 282.458 591.394 282.464 591.397 282.471L592.691 286.585C593.136 287.972 592.986 289.465 592.27 290.791C591.477 292.257 590.057 293.36 588.373 293.818C580.781 295.886 572.934 296.922 565.086 296.923ZM545.735 288.884C545.795 288.949 545.922 289.048 546.138 289.098C559.533 292.24 573.627 291.99 586.895 288.375C587.104 288.318 587.224 288.221 587.282 288.156L586.037 284.202C586.002 284.176 585.889 284.131 585.744 284.169C573.171 287.592 559.814 287.827 547.121 284.849C546.975 284.815 546.865 284.862 546.828 284.89C546.463 286.221 546.098 287.552 545.733 288.884H545.735Z" fill="#242A38"/>
<path d="M281.228 476.638C281.228 476.638 273.02 530.246 303.596 533.007C320.578 534.541 349.964 533.186 347.087 519.203C345.431 511.15 334.597 515.884 324.135 495.796C315.746 479.693 315.916 466.566 315.916 466.566L284.955 469.351L281.227 476.638H281.228Z" fill="#494963"/>
<path opacity="0.3" d="M315.918 466.566L284.957 469.351L281.228 476.638C281.228 476.638 273.02 530.246 303.596 533.007C307.751 533.383 312.649 533.585 317.636 533.471C291.876 524.849 288.341 499.351 289.097 489.746C289.808 480.721 307.31 479.616 317.93 479.781C315.85 471.831 315.918 466.566 315.918 466.566Z" fill="#242A38"/>
<path opacity="0.6" d="M347.089 519.203C345.433 511.15 334.599 515.884 324.136 495.796C315.748 479.693 315.918 466.566 315.918 466.566L284.957 469.351L284.07 471.083L311.483 468.617C311.483 468.617 311.313 481.742 319.701 497.847C330.164 517.934 340.996 513.2 342.654 521.253C343.49 525.317 341.599 528.315 338.08 530.484C344.298 528.304 348.228 524.744 347.087 519.201L347.089 519.203Z" fill="white"/>
<path d="M323.821 508.674C325.418 506.768 326.832 504.617 328.066 502.245C327.12 500.931 326.167 499.45 325.214 497.773C322.057 505.09 317.261 510.144 310.895 512.845C310.229 513.127 309.571 513.371 308.926 513.583C310.157 514.86 311.476 515.976 312.889 516.906C317.106 515.074 320.783 512.307 323.821 508.676V508.674Z" fill="#242A38"/>
<path d="M322.297 492.024C321.46 490.187 320.736 488.404 320.104 486.688C316.966 492.929 312.929 497.273 308.051 499.65C305.708 500.791 303.394 501.352 301.297 501.575C301.952 503.061 302.651 504.492 303.398 505.856C305.477 505.496 307.691 504.843 309.943 503.756C314.831 501.397 318.96 497.467 322.297 492.024Z" fill="#242A38"/>
<path d="M318.132 480.54C317.442 478.014 316.966 475.74 316.639 473.797C314.292 479.11 311.016 482.951 306.845 485.264C303.448 487.147 299.856 487.775 296.707 487.832C297.089 489.344 297.498 490.847 297.942 492.33C301.398 492.133 305.25 491.304 308.984 489.246C312.624 487.239 315.678 484.327 318.132 480.54Z" fill="#242A38"/>
<path d="M321.066 522.146C319.991 522.146 318.872 521.993 317.719 521.686C309.629 519.523 303.106 512.461 298.33 500.695C294.923 492.3 292.414 481.601 290.873 468.896C290.715 467.583 291.646 466.391 292.955 466.231C294.265 466.071 295.455 467.006 295.614 468.318C297.104 480.603 299.506 490.89 302.755 498.892C306.937 509.194 312.386 515.308 318.952 517.062C321.051 517.623 322.739 517.415 324.11 516.421C326.312 514.829 327.745 511.244 328.18 506.273C325.957 503.655 323.937 500.58 322.021 496.904C313.452 480.454 313.524 467.096 313.532 466.537C313.549 465.214 314.637 464.157 315.951 464.174C317.271 464.191 318.325 465.276 318.309 466.598C318.309 466.72 318.28 479.376 326.256 494.69C328.15 498.326 330.221 501.408 332.411 503.852C332.838 504.328 333.056 504.956 333.018 505.596C332.596 512.63 330.482 517.714 326.904 520.302C325.211 521.527 323.23 522.146 321.068 522.146H321.066Z" fill="#242A38"/>
<path d="M314.788 536.324C310.983 536.324 307.094 536.156 303.342 535.817C296.309 535.181 290.569 532.078 286.284 526.595C280.823 519.606 277.853 508.958 277.454 494.946C277.165 484.715 278.392 476.554 278.446 476.21C278.681 474.67 280.117 473.613 281.654 473.851C283.19 474.086 284.245 475.525 284.01 477.065C283.962 477.378 279.362 508.595 290.721 523.123C294.054 527.387 298.349 529.701 303.847 530.198C319.521 531.614 338.064 530.043 343.175 524.303C344.331 523.004 344.698 521.565 344.329 519.772C343.94 517.877 342.85 517.232 339.758 515.644C335.16 513.284 328.209 509.716 321.638 497.1C313.022 480.556 313.094 467.094 313.102 466.529C313.122 464.985 314.378 463.746 315.916 463.746C315.927 463.746 315.941 463.746 315.952 463.746C317.507 463.766 318.75 465.045 318.73 466.603C318.73 466.723 318.708 479.285 326.628 494.49C332.369 505.513 338.124 508.467 342.324 510.624C345.699 512.357 348.886 513.993 349.841 518.633C350.569 522.169 349.716 525.43 347.373 528.06C343.923 531.933 337.192 534.486 327.368 535.643C323.519 536.097 319.209 536.324 314.785 536.324H314.788Z" fill="#242A38"/>
<path d="M303.764 462.739C303.764 462.739 293.19 470.943 295.235 476.071C295.235 476.071 309.05 488.548 326.959 488.207C335.663 488.04 325.425 460.004 325.425 460.004L303.764 462.739Z" fill="#F77B61"/>
<path opacity="0.3" d="M303.764 462.739C303.764 462.739 293.19 470.943 295.235 476.071C295.235 476.071 309.05 488.548 326.959 488.207C335.663 488.04 325.425 460.004 325.425 460.004L303.764 462.739Z" fill="#242A38"/>
<path d="M326.229 491.035C307.813 491.035 293.942 478.7 293.352 478.167C292.197 477.124 292.106 475.341 293.145 474.184C294.185 473.028 295.962 472.935 297.117 473.973C297.247 474.09 310.375 485.706 326.907 485.387C328.463 485.357 329.744 486.596 329.774 488.153C329.804 489.711 328.568 490.997 327.013 491.027C326.752 491.032 326.489 491.035 326.229 491.035Z" fill="#242A38"/>
<path d="M394.259 528.075C371.591 523.325 346.908 510.131 332.204 499.9C323.822 494.066 319.134 484.214 319.96 474.021C319.965 473.951 319.972 473.881 319.977 473.811C310.258 474.256 300.33 474.879 290.624 475.173C235.206 476.864 188.723 458.38 188.723 458.38L190.94 415.135L404.722 387.188C404.722 387.188 451.763 433.321 463.017 468.489C469.121 487.561 465.454 542.994 394.259 528.075Z" fill="#4D5A78"/>
<path opacity="0.6" d="M463.018 468.489C451.764 433.321 404.722 387.188 404.722 387.188L400.652 387.72C408.101 395.223 447.55 435.999 457.73 467.807C463.454 485.695 460.585 535.565 401.47 529.382C465.695 539.164 468.907 486.897 463.016 468.489H463.018Z" fill="white"/>
<path opacity="0.3" d="M384.695 483.678C361.594 438.031 408.1 421.709 431.214 416.56C417.428 399.651 404.722 387.189 404.722 387.189L190.94 415.137L188.723 458.382C188.723 458.382 235.204 476.866 290.624 475.175C300.33 474.879 310.258 474.258 319.977 473.812C319.972 473.883 319.965 473.953 319.96 474.023C319.136 484.216 323.822 494.07 332.204 499.902C340.302 505.537 351.428 512.07 363.576 517.596C335.727 492.452 384.696 483.68 384.696 483.68L384.695 483.678Z" fill="#242A38"/>
<path opacity="0.3" d="M404.723 387.188L190.941 415.135L189.047 452.092C201.51 453.181 212.516 450.005 212.516 450.005C212.516 450.005 346.922 485.232 413.661 396.454C408.276 390.672 404.724 387.188 404.724 387.188H404.723Z" fill="#242A38"/>
<path d="M319.847 470.992C325.618 470.81 331.407 470.68 337.215 470.723C343.022 470.775 348.853 470.995 354.683 471.595C360.507 472.201 366.346 473.178 372.038 474.934C374.878 475.817 377.682 476.887 380.364 478.257C383.046 479.619 385.614 481.254 387.955 483.19C388.748 483.846 388.859 485.022 388.204 485.815C387.561 486.595 386.42 486.717 385.629 486.1L385.612 486.087C383.465 484.411 381.109 482.997 378.627 481.821C376.146 480.639 373.525 479.717 370.85 478.968C365.49 477.474 359.897 476.687 354.268 476.26C348.632 475.837 342.944 475.777 337.245 475.886C331.544 476.001 325.829 476.286 320.103 476.627H320.102C318.551 476.719 317.218 475.533 317.126 473.979C317.034 472.425 318.217 471.089 319.768 470.997C319.79 470.997 319.825 470.994 319.847 470.994V470.992Z" fill="#242A38"/>
<path d="M416.456 533.408C409.473 533.408 401.862 532.55 393.682 530.837C383.063 528.611 371.406 524.492 359.034 518.59C348.977 513.793 338.877 507.978 330.597 502.216C322.226 496.391 317.206 486.839 317.054 476.771C314.699 476.886 312.33 477.008 310.014 477.128C303.663 477.457 297.097 477.796 290.707 477.99C261.771 478.871 235.327 474.215 218.239 470.153C199.706 465.747 188.164 461.192 187.683 461C186.561 460.554 185.848 459.44 185.91 458.233L188.127 414.989C188.207 413.433 189.53 412.237 191.083 412.317C192.636 412.397 193.828 413.723 193.748 415.279L191.638 456.464C195.621 457.916 205.705 461.384 219.653 464.693C236.385 468.663 262.265 473.216 290.537 472.353C296.867 472.161 303.403 471.822 309.724 471.495C313.049 471.323 316.488 471.144 319.847 470.991C320.655 470.952 321.441 471.268 322.002 471.852C322.564 472.437 322.847 473.236 322.779 474.045L322.762 474.248C322.022 483.384 326.254 492.325 333.806 497.581C347.98 507.445 372.469 520.627 394.832 525.312C421.045 530.805 440.094 527.185 451.449 514.551C463.994 500.596 463.556 479.419 460.334 469.348C455.841 455.308 444.48 437.014 427.479 416.446C414.556 400.81 402.867 389.315 402.75 389.2C401.639 388.109 401.621 386.325 402.707 385.211C403.795 384.097 405.576 384.079 406.687 385.168C406.805 385.284 418.704 396.987 431.814 412.846C439.529 422.18 446.158 431.117 451.519 439.412C458.281 449.874 463.051 459.365 465.694 467.625C467.796 474.195 468.409 483.062 467.331 491.343C466.363 498.792 463.548 509.519 455.631 518.326C449.708 524.914 441.868 529.406 432.328 531.675C427.48 532.828 422.178 533.404 416.455 533.404L416.456 533.408Z" fill="#242A38"/>
<path d="M108.475 480.173C108.475 480.173 111.326 497.408 96.5365 503.761C89.3727 506.838 66.1869 506.11 67.4564 522.135C68.3094 532.904 91.4502 532.891 114.873 530.682C129.37 529.315 142.428 529.138 152.481 529.912C161.351 530.597 167.49 522.05 163.312 511.538C158.735 500.026 155.978 486.925 156.831 475.301L108.477 480.173H108.475Z" fill="#494963"/>
<path opacity="0.3" d="M114.868 530.682C129.365 529.315 142.423 529.138 152.476 529.912C161.346 530.597 167.485 522.05 163.307 511.538C158.73 500.026 155.973 486.925 156.826 475.301L151.013 475.887C150.92 476.313 150.825 476.755 150.73 477.209C149.98 476.854 149.202 476.493 148.433 476.147L130.252 477.979C126.022 479.336 122.286 480.515 122.286 480.515C122.286 480.515 125.357 502.736 126.38 508.206C126.915 511.067 122.435 518.404 112.542 523.703C110.105 525.009 107.389 525.716 104.625 525.747C93.946 525.865 81.5876 525.186 67.7031 523.529C67.7098 523.551 67.7181 523.573 67.7248 523.594H67.7215C70.4987 532.898 92.5549 532.786 114.868 530.68V530.682Z" fill="#242A38"/>
<path opacity="0.6" d="M70.5229 524.87C69.2535 508.845 92.4392 509.571 99.603 506.496C114.392 500.143 111.542 482.908 111.542 482.908L156.685 478.359C156.705 477.331 156.752 476.309 156.825 475.301L108.471 480.173C108.471 480.173 111.322 497.408 96.5326 503.761C89.3688 506.838 66.183 506.11 67.4525 522.135C67.6591 524.741 69.1735 526.713 71.6775 528.177C71.0194 527.209 70.6212 526.112 70.5229 524.87Z" fill="white"/>
<path d="M91.7014 515.442C84.8708 515.442 80.6391 512.35 78.1118 509.246C77.2788 508.222 77.4304 506.715 78.4517 505.878C79.4729 505.043 80.9773 505.195 81.812 506.219C85.5655 510.829 91.5381 511.854 99.5583 509.262C109.371 506.092 115.965 500.285 119.157 492.002C121.536 485.829 121.06 480.627 121.055 480.575C120.925 479.259 121.884 478.089 123.197 477.959C124.51 477.83 125.678 478.79 125.808 480.106C125.833 480.363 126.396 486.504 123.614 493.725C121.045 500.392 115.04 509.289 101.026 513.817C97.4808 514.962 94.392 515.442 91.7047 515.442H91.7014Z" fill="#242A38"/>
<path d="M109.867 508.995C109.695 508.995 109.522 508.974 109.349 508.925C106.08 508.032 102.866 506.511 99.7957 504.406C98.901 503.793 98.6728 502.569 99.2842 501.673C99.8956 500.776 101.117 500.547 102.01 501.16C104.719 503.018 107.536 504.354 110.381 505.132C111.426 505.417 112.042 506.499 111.758 507.546C111.519 508.419 110.73 508.995 109.867 508.995Z" fill="#242A38"/>
<path d="M118.336 500.091C114.503 500.091 109.271 498.714 105.854 497.493C104.835 497.129 104.302 496.004 104.665 494.982C105.028 493.96 106.151 493.426 107.17 493.79C109.774 494.72 115.126 496.263 118.676 496.154C119.752 496.124 120.663 496.972 120.697 498.058C120.73 499.143 119.879 500.049 118.798 500.083C118.646 500.088 118.493 500.09 118.336 500.09V500.091Z" fill="#242A38"/>
<path d="M97.9952 514.165C97.697 514.165 97.3938 514.097 97.1106 513.952C93.8052 512.272 90.8514 509.924 88.3308 506.973C87.626 506.148 87.7227 504.907 88.5457 504.201C89.3687 503.495 90.6065 503.592 91.3112 504.416C93.4937 506.973 96.041 509.001 98.8832 510.445C99.8495 510.936 100.236 512.118 99.7462 513.087C99.4014 513.77 98.71 514.164 97.9952 514.164V514.165Z" fill="#242A38"/>
<path d="M93.6744 534.67C91.5719 534.67 89.5993 534.623 87.7468 534.528C78.3022 534.044 71.9381 532.314 68.2862 529.24C66.0854 527.387 64.8609 525.073 64.646 522.361C64.1312 515.858 66.93 510.878 72.9643 507.559C77.6791 504.966 83.6784 503.8 88.4998 502.862C91.3053 502.316 93.9559 501.802 95.422 501.171C108.037 495.753 105.718 480.786 105.693 480.636C105.438 479.1 106.476 477.647 108.009 477.392C109.543 477.138 110.991 478.177 111.246 479.713C111.279 479.911 112.034 484.626 110.793 490.2C109.102 497.798 104.552 503.385 97.6395 506.353C95.6186 507.221 92.8164 507.766 89.5727 508.397C78.1972 510.609 69.5507 513.008 70.2571 521.912C70.3504 523.094 70.8751 524.049 71.9064 524.919C73.7207 526.449 77.9923 528.379 88.0316 528.893C94.9106 529.245 103.602 528.911 114.603 527.874C128.559 526.559 142.085 526.283 152.691 527.101C155.718 527.334 158.412 526.168 160.076 523.899C162.184 521.027 162.409 516.902 160.691 512.583C155.561 499.676 153.191 486.363 154.017 475.095C154.13 473.542 155.48 472.373 157.031 472.488C158.58 472.602 159.745 473.954 159.631 475.507C158.867 485.94 161.099 498.366 165.921 510.494C168.373 516.663 167.895 522.767 164.611 527.242C161.769 531.112 157.267 533.112 152.259 532.725C141.963 531.932 128.777 532.202 115.131 533.489C106.776 534.277 99.692 534.668 93.6727 534.668L93.6744 534.67Z" fill="#242A38"/>
<path d="M142.159 471.029C128.685 476.841 122.119 471.969 122.119 471.969C115.122 474.172 109.532 474.35 105.062 473.275V485.899C105.062 487.123 105.982 488.146 107.197 488.278C114.677 489.093 122.959 489.631 131.925 489.661C141.496 489.692 150.301 489.138 158.198 488.278C159.408 488.146 160.322 487.119 160.322 485.899V473.437C152.905 475.043 142.158 471.029 142.158 471.029H142.159Z" fill="#F77B61"/>
<path opacity="0.3" d="M148.553 477.439C148.476 476.213 148.143 474.525 147.61 472.64C144.431 471.879 142.155 471.029 142.155 471.029C132.258 475.299 126.089 473.803 123.51 472.709C124.533 478.99 122.628 486.889 105.059 484.061V485.899C105.059 487.123 105.978 488.146 107.193 488.278C114.673 489.093 122.955 489.631 131.921 489.661C136.751 489.676 141.384 489.542 145.804 489.297C147.538 484.829 148.72 480.16 148.551 477.439H148.553Z" fill="#242A38"/>
<path opacity="0.3" d="M152.485 473.549C148.962 479.66 138.156 487.988 105.062 483.929V485.9C105.062 487.123 105.982 488.147 107.197 488.279C114.677 489.094 122.959 489.631 131.925 489.661C141.496 489.693 150.301 489.139 158.198 488.279C159.408 488.147 160.322 487.12 160.322 485.9V473.438C157.901 473.962 155.124 473.888 152.484 473.549H152.485Z" fill="#242A38"/>
<path d="M132.681 492.483C132.424 492.483 132.171 492.483 131.914 492.483C123.588 492.456 115.169 491.985 106.891 491.083C104.244 490.795 102.246 488.567 102.246 485.899V469.918C102.246 468.36 103.506 467.098 105.06 467.098C106.614 467.098 107.874 468.36 107.874 469.918V485.515C115.836 486.368 123.927 486.814 131.933 486.839C140.441 486.869 149.041 486.422 157.507 485.515V469.918C157.507 468.36 158.767 467.098 160.321 467.098C161.876 467.098 163.135 468.36 163.135 469.918V485.899C163.135 488.566 161.143 490.795 158.5 491.082C149.957 492.012 141.274 492.483 132.681 492.483Z" fill="#242A38"/>
<path d="M159.736 369.379C146.182 360.014 118.734 360.528 102.248 379.41C85.5326 398.554 80.5862 429.834 88.0915 452.91C88.0915 452.91 95.9368 484.873 123.909 471.371C123.909 471.371 126.668 473.625 132.564 473.531C129.08 438.653 130.578 390.839 159.736 369.379Z" fill="#4D5A78"/>
<path opacity="0.6" d="M91.8434 457.012C84.338 433.937 89.2844 402.656 105.999 383.513C123.211 363.801 152.366 364.107 165.193 374.772C155.521 360.343 121.45 357.418 102.248 379.41C85.5326 398.554 80.5862 429.834 88.0915 452.91C88.0915 452.91 90.6255 463.228 97.9443 469.663C93.4861 463.699 91.845 457.012 91.845 457.012H91.8434Z" fill="white"/>
<path opacity="0.3" d="M159.734 369.381C158.615 368.608 157.404 367.898 156.109 367.266C150.726 371.435 147.803 374.261 147.803 374.261C124.324 391.011 118.324 424.216 118.546 454.655C118.566 457.376 117.053 459.896 114.621 461.108C113.285 461.774 111.963 462.552 110.694 463.422C107.115 465.876 98.8587 464.369 92.1797 462.527C96.5463 469.917 104.886 478.098 119.399 473.223C119.53 473.179 119.664 473.133 119.797 473.086C119.939 473.036 120.08 472.986 120.222 472.934C120.348 472.887 120.475 472.84 120.603 472.794C120.705 472.755 120.807 472.717 120.908 472.677C121.052 472.622 121.195 472.565 121.34 472.507C121.42 472.475 121.5 472.443 121.581 472.41C121.8 472.32 122.019 472.228 122.241 472.133C122.313 472.103 122.384 472.069 122.456 472.039C122.629 471.964 122.802 471.885 122.977 471.807C123.049 471.774 123.121 471.742 123.194 471.708C123.432 471.598 123.67 471.486 123.912 471.371C123.912 471.371 123.917 471.375 123.924 471.38C124.11 471.526 126.879 473.622 132.567 473.532C129.083 438.655 130.581 390.842 159.736 369.381H159.734Z" fill="#242A38"/>
<path d="M111.041 477.526C107.7 477.526 104.545 476.83 101.591 475.434C89.4375 469.694 85.5207 454.24 85.3591 453.585C85.3441 453.522 85.3291 453.457 85.3191 453.392C83.6964 443.97 82.2503 429.491 84.5844 414.01C86.8385 399.052 92.0698 386.787 100.13 377.556C108.102 368.425 119.331 362.548 131.746 361.005C142.8 359.633 153.86 361.895 161.334 367.059C162.613 367.942 162.937 369.699 162.054 370.981C161.172 372.263 159.42 372.587 158.138 371.702C151.768 367.301 142.161 365.396 132.437 366.602C121.396 367.972 111.427 373.182 104.365 381.268C84.4694 404.054 88.9527 441.257 90.8436 452.316C91.1435 453.437 94.682 465.954 104.012 470.342C109.236 472.798 115.519 472.29 122.686 468.831C123.699 468.341 124.818 468.43 125.665 469.168C125.928 469.355 128.09 470.779 132.517 470.712C132.532 470.712 132.547 470.712 132.562 470.712C134.096 470.712 135.351 471.946 135.374 473.489C135.399 475.047 134.158 476.329 132.605 476.354C128.319 476.426 125.395 475.39 123.737 474.556C119.262 476.536 115.017 477.526 111.036 477.526H111.041Z" fill="#242A38"/>
<path d="M542.156 291.487L480.749 272.342C480.749 272.342 467.925 271.744 447.973 277.546C447.597 281.83 447.147 285.393 446.76 288.031C446.311 291.108 446.76 294.255 448.097 297.062C451.479 304.163 456.307 320.4 443.542 340.372C429.087 362.584 387.262 374.604 357.134 380.573C335.185 384.922 312.6 384.921 290.659 380.531C260.746 374.547 219.339 362.531 204.918 340.372C204.887 340.322 204.857 340.272 204.825 340.222C177.194 352.341 160.071 369.133 160.071 369.133C110.946 404.689 139.451 514.396 139.451 514.396L192.367 513.029C200.099 494.643 200.32 446.927 200.32 446.927C212.77 448.124 223.857 444.875 223.857 444.875C223.857 444.875 364.155 482.182 427.683 383.263C427.683 383.263 463.314 358.799 475.444 337.981L537.609 340.26C537.609 340.26 553.984 317.772 542.157 291.484L542.156 291.487Z" fill="#4D5A78"/>
<path opacity="0.6" d="M542.156 291.487L480.749 272.342C480.749 272.342 467.925 271.744 447.973 277.546C447.835 279.122 447.687 280.598 447.535 281.969C466.763 276.554 479.044 277.128 479.044 277.128L540.452 296.274C546.501 309.719 545.171 322.17 542.429 331.126C546.088 322.161 549.375 307.532 542.156 291.487Z" fill="white"/>
<path opacity="0.6" d="M204.922 340.369C204.891 340.319 204.861 340.269 204.829 340.219C177.198 352.338 160.075 369.13 160.075 369.13C148.973 377.166 141.836 388.99 137.438 402.479C141.901 390.99 148.6 380.986 158.369 373.915C158.369 373.915 177.128 355.517 207.063 343.338C206.297 342.368 205.582 341.379 204.924 340.367L204.922 340.369Z" fill="white"/>
<path opacity="0.3" d="M198.616 446.927C211.066 448.124 222.153 444.875 222.153 444.875C222.153 444.875 362.451 482.183 425.979 383.263C425.979 383.263 461.61 358.8 473.74 337.981L535.905 340.26C535.905 340.26 539.224 335.701 541.794 328.289C521.126 329.678 485.328 329.97 480.039 315.994C480.039 315.994 449.849 370.52 437.569 354.624C437.569 354.624 381.796 431.542 341.886 391.032L303.509 388.467C303.509 388.467 283.042 445.9 199.128 409.491C199.128 409.491 205.78 445.899 176.102 443.336C176.102 443.336 191.452 488.975 177.125 498.204C177.125 498.204 155.278 500.432 139.305 514.355L190.663 513.027C198.394 494.641 198.616 446.925 198.616 446.925V446.927Z" fill="#242A38"/>
<path d="M267.227 362.89C267.227 362.89 284.576 404.367 325.512 430.518C325.512 430.518 376.798 387.564 386.461 361.863L267.228 362.888L267.227 362.89Z" fill="#F77B61"/>
<path d="M397.929 333.174C397.929 333.174 371.729 390.682 324.203 422.735C327.467 425.322 330.849 427.803 334.344 430.147C381.605 398.038 407.65 340.866 407.65 340.866L397.929 333.174Z" fill="#4D5A78"/>
<path d="M334.344 432.539C333.579 432.539 332.828 432.172 332.365 431.489C331.625 430.395 331.91 428.908 333.001 428.165C357.103 411.791 375.529 388.65 386.743 372.119C398.908 354.187 405.41 340.012 405.475 339.871C406.024 338.668 407.44 338.139 408.639 338.687C409.839 339.236 410.367 340.655 409.82 341.857C409.55 342.448 403.083 356.545 390.693 374.809C383.416 385.534 375.609 395.447 367.491 404.271C357.316 415.327 346.614 424.699 335.683 432.125C335.273 432.404 334.807 432.538 334.345 432.538L334.344 432.539Z" fill="#242A38"/>
<path d="M324.204 425.556C323.3 425.556 322.41 425.118 321.867 424.31C320.999 423.018 321.34 421.265 322.63 420.396C346.773 404.113 365.248 380.982 376.493 364.444C388.728 346.452 395.301 332.146 395.366 332.002C396.012 330.586 397.68 329.962 399.094 330.609C400.507 331.257 401.13 332.929 400.485 334.346C400.214 334.942 393.693 349.152 381.211 367.523C373.881 378.312 366.016 388.275 357.836 397.135C347.582 408.243 336.792 417.643 325.772 425.076C325.29 425.402 324.744 425.557 324.202 425.557L324.204 425.556Z" fill="#242A38"/>
<path d="M260.272 340.354L250.551 348.045C250.551 348.045 281.512 416.007 337.176 445.349C342.404 444.018 347.639 442.444 352.837 440.592C293.44 413.159 260.274 340.354 260.274 340.354H260.272Z" fill="#4D5A78"/>
<path d="M337.175 447.74C336.8 447.74 336.421 447.652 336.066 447.465C323.164 440.665 310.523 431.248 298.491 419.477C288.896 410.091 279.663 399.191 271.047 387.082C256.386 366.475 248.459 349.21 248.381 349.038C247.832 347.836 248.361 346.416 249.562 345.867C250.761 345.318 252.177 345.849 252.726 347.049C252.802 347.218 260.579 364.141 274.997 384.387C288.246 402.995 309.983 428.306 338.29 443.227C339.458 443.844 339.906 445.289 339.291 446.46C338.863 447.275 338.035 447.739 337.175 447.739V447.74Z" fill="#242A38"/>
<path d="M352.834 443.412C352.439 443.412 352.039 443.328 351.658 443.153C337.838 436.77 324.294 427.44 311.399 415.421C301.126 405.845 291.237 394.549 282.005 381.845C266.303 360.233 258.055 342.278 257.712 341.525C257.067 340.108 257.688 338.435 259.103 337.788C260.517 337.142 262.187 337.765 262.831 339.183C262.913 339.363 271.233 357.46 286.628 378.626C300.758 398.053 323.919 424.131 354.013 438.031C355.424 438.683 356.043 440.358 355.391 441.772C354.916 442.804 353.898 443.413 352.834 443.413V443.412Z" fill="#242A38"/>
<path d="M199.24 449.752C198.824 449.692 198.449 449.63 198.059 449.565L196.906 449.364C196.14 449.227 195.379 449.082 194.617 448.932C193.096 448.628 191.58 448.294 190.071 447.932C188.561 447.566 187.059 447.159 185.564 446.718C184.07 446.265 182.585 445.763 181.118 445.195C180.346 444.896 179.963 444.028 180.261 443.255C180.533 442.547 181.283 442.165 181.999 442.335L182.027 442.342C183.457 442.677 184.906 442.955 186.369 443.185C187.835 443.405 189.308 443.594 190.789 443.741C192.27 443.886 193.756 444.005 195.242 444.092C195.985 444.135 196.728 444.172 197.471 444.2L198.582 444.237C198.947 444.247 199.329 444.255 199.667 444.257C201.188 444.265 202.416 445.507 202.408 447.033C202.399 448.56 201.16 449.788 199.637 449.78C199.514 449.78 199.39 449.77 199.27 449.753L199.239 449.748L199.24 449.752Z" fill="#242A38"/>
<path d="M198.664 408.639C198.737 408.836 198.827 409.072 198.917 409.292C199.007 409.516 199.102 409.74 199.199 409.963C199.392 410.411 199.594 410.855 199.804 411.299C200.225 412.182 200.667 413.059 201.14 413.919C202.074 415.643 203.114 417.313 204.222 418.929C205.333 420.542 206.518 422.103 207.782 423.591C209.048 425.077 210.386 426.494 211.785 427.842L212.848 428.837C213.21 429.161 213.578 429.476 213.943 429.795C214.126 429.952 214.304 430.117 214.494 430.269L215.059 430.725L215.624 431.181C215.81 431.334 216 431.485 216.195 431.627L217.357 432.495C217.743 432.785 218.15 433.046 218.543 433.325C219.326 433.887 220.159 434.376 220.968 434.896C224.27 436.879 227.774 438.489 231.399 439.718L231.411 439.721C232.759 440.178 233.482 441.643 233.025 442.993C232.569 444.344 231.108 445.069 229.76 444.611C229.713 444.596 229.66 444.576 229.615 444.558C225.727 442.975 222.008 440.983 218.561 438.617C217.716 438.001 216.85 437.417 216.039 436.759C215.631 436.433 215.211 436.124 214.813 435.787L213.62 434.777C213.418 434.612 213.225 434.438 213.035 434.261L212.458 433.735L211.884 433.209C211.69 433.034 211.511 432.847 211.324 432.667C210.954 432.301 210.581 431.94 210.216 431.571L209.145 430.441C207.739 428.915 206.411 427.326 205.168 425.674C203.927 424.021 202.781 422.305 201.716 420.542C200.655 418.777 199.675 416.966 198.804 415.101C198.364 414.171 197.956 413.226 197.569 412.271C197.378 411.792 197.193 411.311 197.016 410.823C196.928 410.579 196.841 410.334 196.758 410.087C196.673 409.835 196.596 409.598 196.513 409.317C196.333 408.719 196.671 408.09 197.268 407.911C197.839 407.739 198.441 408.043 198.647 408.596L198.662 408.636L198.664 408.639Z" fill="#242A38"/>
<path d="M423.479 382.03C423.739 381.589 424.009 381.117 424.272 380.656L425.062 379.255C425.585 378.319 426.101 377.377 426.611 376.43C427.631 374.539 428.62 372.63 429.581 370.709C430.536 368.785 431.454 366.847 432.334 364.892C433.197 362.933 434.015 360.96 434.749 358.963L434.756 358.944C435.048 358.153 435.924 357.749 436.712 358.039C437.452 358.313 437.85 359.106 437.66 359.856C437.103 362.008 436.462 364.127 435.776 366.226C435.074 368.318 434.333 370.391 433.555 372.45C432.77 374.505 431.955 376.547 431.109 378.577C430.686 379.593 430.256 380.604 429.816 381.614L429.152 383.129C428.925 383.636 428.703 384.131 428.462 384.653C427.807 386.069 426.133 386.683 424.72 386.029C423.307 385.373 422.694 383.695 423.347 382.279C423.386 382.194 423.429 382.112 423.475 382.034L423.479 382.029V382.03Z" fill="#242A38"/>
<path d="M470.467 337.943C470.679 337.522 470.9 337.063 471.115 336.615L471.757 335.26C472.182 334.353 472.596 333.438 473.008 332.523C473.826 330.69 474.614 328.842 475.37 326.982C476.128 325.122 476.836 323.245 477.513 321.358C478.184 319.47 478.792 317.567 479.349 315.65L479.355 315.627C479.59 314.817 480.437 314.351 481.245 314.586C481.998 314.805 482.451 315.565 482.319 316.321C481.954 318.365 481.534 320.395 481.051 322.407C480.563 324.416 480.042 326.416 479.469 328.398C478.897 330.381 478.294 332.353 477.658 334.315C477.338 335.295 477.013 336.275 476.676 337.252L476.165 338.717C475.99 339.21 475.818 339.688 475.627 340.2C475.08 341.661 473.456 342.401 471.998 341.855C470.541 341.307 469.803 339.679 470.347 338.218C470.382 338.125 470.422 338.033 470.466 337.946V337.943H470.467Z" fill="#242A38"/>
<path d="M139.451 516.96C138.289 516.96 137.27 516.173 136.975 515.041C136.903 514.764 129.765 486.968 128.782 455.176C128.202 436.413 129.843 419.915 133.66 406.142C138.483 388.738 146.814 375.623 158.423 367.162C159.243 366.375 163.459 362.407 170.568 357.158C177.73 351.868 189.309 344.228 203.798 337.872C204.953 337.364 206.306 337.778 206.982 338.843L207.072 338.989C207.833 340.181 207.487 341.767 206.296 342.53C205.901 342.784 205.464 342.914 205.028 342.932C178.612 354.7 162.025 370.802 161.858 370.965C161.767 371.054 161.67 371.137 161.567 371.211C137.1 388.919 133.013 426.56 133.895 455.019C134.711 481.42 139.837 504.972 141.445 511.781L190.605 510.51C197.473 491.782 197.757 447.375 197.759 446.916C197.762 446.195 198.067 445.51 198.602 445.026C199.135 444.544 199.847 444.306 200.563 444.375C212.342 445.507 223.034 442.445 223.141 442.415C223.587 442.285 224.064 442.278 224.513 442.398C224.6 442.421 233.382 444.732 247.263 446.639C260.053 448.397 279.916 450.163 301.911 448.596C340.526 445.844 393.316 432.035 425.532 381.875C425.717 381.587 425.957 381.34 426.236 381.147C426.588 380.904 461.536 356.763 473.234 336.688C473.709 335.872 474.591 335.389 475.537 335.419L536.268 337.646C537.517 335.648 540.113 331.051 541.915 324.829C545.039 314.05 544.488 303.546 540.281 293.587L480.328 274.894C478.299 274.859 466.272 274.894 448.688 280.006C447.33 280.402 445.912 279.617 445.517 278.258C445.124 276.897 445.904 275.477 447.261 275.081C467.39 269.229 480.328 269.753 480.87 269.778C481.088 269.788 481.303 269.827 481.511 269.892L542.918 289.037C543.618 289.256 544.189 289.763 544.491 290.431C547.33 296.742 548.846 303.374 548.994 310.139C549.113 315.539 548.366 321.029 546.773 326.455C544.063 335.685 539.855 341.528 539.676 341.772C539.175 342.46 538.368 342.856 537.515 342.822L476.855 340.598C471.502 349.198 462.024 359.214 448.654 370.396C439.541 378.018 431.473 383.739 429.558 385.078C414.829 407.842 394.836 425.288 370.124 436.94C350.297 446.288 327.419 451.933 302.128 453.72C279.688 455.304 259.45 453.494 246.423 451.696C234.336 450.028 226.211 448.108 223.88 447.524C221.416 448.17 212.841 450.17 202.847 449.676C202.672 460.225 201.574 497.738 194.725 514.021C194.335 514.95 193.439 515.562 192.435 515.589L139.519 516.956C139.497 516.956 139.474 516.956 139.452 516.956L139.451 516.96Z" fill="#242A38"/>
<path d="M143.108 515.065C143.108 515.065 167.781 503.227 190.252 512.789C190.252 512.789 202.516 528.193 208.683 530.015C214.852 531.836 229.392 536.843 221.46 542.308C213.53 547.771 200.751 545.495 200.751 545.495C200.751 545.495 217.935 558.699 198.549 559.609C198.549 559.609 184.45 556.877 170.792 538.209C170.792 538.209 172.113 559.609 161.98 561.428C151.848 563.248 146.56 560.063 148.322 541.396C148.322 541.396 134.534 553.167 121.791 553.202C117.438 553.214 113.659 550.189 112.633 545.949C112.633 545.949 92.8061 538.209 106.024 533.2C119.242 528.191 126.291 526.826 143.108 515.065Z" fill="#FBBDB0"/>
<path opacity="0.3" d="M208.685 530.013C202.515 528.191 190.252 512.787 190.252 512.787C167.781 503.225 143.107 515.063 143.107 515.063C142.374 515.575 141.661 516.066 140.965 516.541C153.986 515.37 175.696 514.472 183.263 520.422C192.191 527.443 208.974 538.232 223.279 540.558C226.358 535.798 214.189 531.635 208.685 530.011V530.013Z" fill="#242A38"/>
<path opacity="0.3" d="M200.752 545.493C200.752 545.493 201.877 545.693 203.664 545.831C198.092 542.187 189.675 536.405 187.016 533.072C187.016 533.072 185.14 537.004 193.497 547.089C197.472 551.885 198.976 556.101 198.838 559.591C217.762 558.562 200.752 545.493 200.752 545.493Z" fill="#242A38"/>
<path opacity="0.3" d="M149.088 556.113C151.042 561.715 155.528 562.586 161.979 561.428C169.678 560.044 170.764 547.361 170.842 541.347L168.935 535.467C168.935 535.467 164.538 561.626 149.086 556.115L149.088 556.113Z" fill="#242A38"/>
<path opacity="0.3" d="M136.189 532.391C136.189 532.391 115.404 537.88 101.739 536.209C99.7831 540.221 109.484 544.627 112.032 545.702C119.285 542.976 134.506 536.798 136.189 532.391Z" fill="#242A38"/>
<path opacity="0.3" d="M112.934 546.944C114.271 550.654 117.787 553.214 121.79 553.202C133.002 553.17 145.024 544.054 147.748 541.865C148.306 540.717 148.678 539.602 148.809 538.543C148.809 538.543 132.226 550.147 112.934 546.944Z" fill="#242A38"/>
<path d="M157.644 564.695C154.808 564.695 151.818 564.073 149.482 561.917C146.482 559.151 145.094 554.526 145.172 547.259C139.748 550.933 130.663 555.998 121.797 556.025H121.762C116.612 556.025 112.104 552.813 110.331 548.043C109.185 547.54 107.414 546.71 105.631 545.67C100.928 542.928 98.6491 540.184 98.6641 537.28C98.6791 534.418 100.82 532.158 105.027 530.563C107.309 529.698 109.383 528.95 111.389 528.228C120.952 524.78 127.861 522.289 141.494 512.753C141.619 512.667 141.752 512.588 141.889 512.523C142.153 512.396 148.486 509.388 157.707 507.576C170.007 505.158 181.639 506.063 191.347 510.194C191.777 510.378 192.155 510.665 192.447 511.03C196.977 516.719 205.605 526.167 209.473 527.309C212.041 528.067 215.771 529.293 218.968 530.829C223.679 533.093 226.077 535.429 226.513 538.18C226.778 539.851 226.393 542.327 223.05 544.632C218.476 547.782 212.639 548.665 208.012 548.774C210.281 551.756 211.054 554.461 210.315 556.83C208.712 561.954 201.158 562.309 198.676 562.425C198.453 562.436 198.229 562.42 198.01 562.376C197.461 562.269 185.879 559.877 173.421 545.947C173.314 547.119 173.164 548.355 172.956 549.604C171.137 560.441 166.251 563.525 162.472 564.204C161.041 564.462 159.37 564.694 157.642 564.694L157.644 564.695ZM148.319 538.577C148.763 538.577 149.207 538.683 149.617 538.896C150.633 539.426 151.228 540.521 151.12 541.665C150.307 550.271 151.038 555.689 153.292 557.768C154.753 559.115 157.356 559.398 161.481 558.656C165.104 558.005 166.704 552.868 167.408 548.672C168.281 543.474 167.983 538.437 167.98 538.387C167.903 537.138 168.656 535.986 169.831 535.56C171.005 535.135 172.32 535.535 173.058 536.544C179.725 545.655 186.453 550.691 190.921 553.309C194.927 555.656 197.886 556.536 198.799 556.773C203.554 556.497 204.859 555.426 204.945 555.145C205.033 554.863 204.79 553.506 202.589 551.055C200.898 549.171 199.054 547.747 199.036 547.734C198.006 546.942 197.65 545.548 198.173 544.358C198.696 543.167 199.964 542.489 201.24 542.718C201.353 542.738 212.995 544.713 219.861 539.983C220.537 539.517 220.834 539.164 220.929 539.003C220.576 538.198 217.633 535.599 207.882 532.72C204.797 531.809 200.615 528.516 195.101 522.654C192.055 519.417 189.516 516.358 188.508 515.121C177.798 510.78 166.552 511.603 158.94 513.081C151.235 514.577 145.599 517.028 144.508 517.522C130.393 527.369 122.841 530.092 113.292 533.535C111.306 534.252 109.253 534.991 107.014 535.839C105.14 536.551 104.505 537.15 104.325 537.364C104.485 537.713 105.277 538.987 108.763 540.968C111.234 542.372 113.627 543.311 113.65 543.321C114.499 543.653 115.138 544.378 115.359 545.264C115.361 545.271 115.362 545.278 115.364 545.284C116.091 548.288 118.719 550.382 121.76 550.382H121.778C133.355 550.348 146.362 539.359 146.492 539.249C147.012 538.805 147.661 538.576 148.318 538.576L148.319 538.577Z" fill="#242A38"/>
<path d="M199.104 547.9C198.021 546.975 196.983 546.063 195.938 545.126C194.897 544.193 193.866 543.246 192.845 542.285C191.825 541.316 190.814 540.333 189.821 539.304L189.081 538.515C188.834 538.256 188.593 537.964 188.35 537.69C188.106 537.424 187.865 537.1 187.625 536.803L187.445 536.575L187.262 536.307L186.904 535.771C186.362 534.962 186.579 533.865 187.387 533.322C188.115 532.833 189.076 532.961 189.656 533.584L189.856 533.8L190.121 534.085L190.249 534.229L190.412 534.384C190.637 534.593 190.835 534.8 191.09 535.01C191.337 535.219 191.565 535.431 191.825 535.636L192.591 536.257C193.636 537.077 194.72 537.875 195.818 538.662C196.921 539.445 198.037 540.216 199.164 540.976C200.287 541.732 201.434 542.49 202.557 543.208L202.562 543.211C203.92 544.08 204.318 545.886 203.452 547.248C202.586 548.609 200.781 549.008 199.424 548.14C199.314 548.07 199.199 547.983 199.1 547.901L199.104 547.9Z" fill="#242A38"/>
<path d="M111.576 543.08C112.576 542.754 113.609 542.4 114.625 542.049C115.645 541.697 116.663 541.337 117.677 540.971C119.71 540.241 121.727 539.478 123.73 538.689C125.736 537.902 127.715 537.069 129.654 536.186C131.585 535.301 133.514 534.361 135.18 533.267L135.217 533.242C135.992 532.733 137.033 532.95 137.539 533.726C138.014 534.453 137.849 535.418 137.191 535.955C135.344 537.455 133.438 538.618 131.51 539.757C129.583 540.884 127.633 541.948 125.669 542.959C123.705 543.975 121.729 544.961 119.741 545.913C118.747 546.389 117.751 546.861 116.749 547.325C115.745 547.791 114.755 548.247 113.721 548.706C112.199 549.379 110.422 548.691 109.75 547.167C109.077 545.642 109.765 543.861 111.286 543.188C111.38 543.146 111.478 543.11 111.573 543.078L111.576 543.08Z" fill="#242A38"/>
<path d="M539.786 294.307C539.786 294.307 561.604 284.64 577.446 293.262C588.45 299.251 597.426 313.738 592.185 330.211C592.185 330.211 599.069 342.78 589.987 350.208C589.987 350.208 579.783 360.842 577.477 341.183C577.477 341.183 565.504 336.759 557.272 340.958L553.867 350.982C553.867 350.982 540.142 347.637 538.055 330.067L539.786 294.307Z" fill="#FBBDB0"/>
<path opacity="0.6" d="M575.395 297.362C586.397 303.351 595.376 317.839 590.134 334.311C590.134 334.311 593.993 341.355 592.122 348.014C597.845 340.547 592.182 330.209 592.182 330.209C597.423 313.736 588.447 299.249 577.443 293.26C561.599 284.638 539.783 294.305 539.783 294.305L539.621 297.66C545.246 295.568 562.347 290.26 575.397 297.362H575.395Z" fill="white"/>
<path opacity="0.3" d="M553.862 350.982L557.268 340.957C565.499 336.76 577.473 341.183 577.473 341.183C579.779 360.841 589.983 350.207 589.983 350.207C597.86 343.764 593.726 333.457 592.49 330.834C586.742 331.903 581.028 331.063 579.042 329.073C575.29 325.313 554.14 326.338 548.341 330.783C545.422 333.018 541.469 329.629 538.258 325.707L538.047 330.068C540.134 347.637 553.859 350.983 553.859 350.983L553.862 350.982Z" fill="#242A38"/>
<path d="M584.272 355.904C583.535 355.904 582.776 355.794 582.004 355.534C578.336 354.297 576.012 350.3 574.929 343.336C571.85 342.457 564.868 340.91 559.541 343.022L556.528 351.891C556.058 353.273 554.613 354.068 553.199 353.722C553.034 353.682 549.097 352.695 544.957 349.294C541.189 346.199 536.447 340.409 535.258 330.401C535.239 330.246 535.234 330.087 535.241 329.93L536.972 294.17C537.024 293.105 537.672 292.159 538.645 291.728C538.88 291.624 544.496 289.158 552.174 287.776C562.539 285.909 571.74 286.949 578.787 290.784C585.04 294.187 590.387 299.961 593.46 306.622C596.858 313.992 597.451 322.04 595.194 329.972C595.825 331.373 596.835 333.962 597.275 337.023C598.181 343.326 596.318 348.602 591.885 352.295C591.13 353.046 588.008 355.906 584.27 355.906L584.272 355.904ZM565.872 336.333C572.375 336.333 578.094 338.405 578.449 338.537C579.443 338.904 580.147 339.799 580.27 340.855C581.003 347.097 582.569 349.767 583.792 350.186C585.068 350.623 587.192 349.036 587.967 348.244C588.045 348.162 588.118 348.096 588.207 348.024C595.39 342.148 589.774 331.673 589.716 331.568C589.345 330.89 589.268 330.091 589.501 329.354C594.188 314.625 586.307 301.296 576.1 295.742C563.981 289.147 547.61 294.347 542.505 296.257L540.872 329.965C542.255 340.935 548.594 345.549 552.139 347.303L554.603 340.05C554.84 339.354 555.338 338.779 555.991 338.445C559.09 336.866 562.58 336.335 565.869 336.335L565.872 336.333Z" fill="#242A38"/>
<path opacity="0.3" d="M202.563 350.801C217.324 373.484 258.32 385.826 290.11 392.186C301.339 394.431 312.653 395.555 323.978 395.555C335.229 395.555 346.491 394.447 357.682 392.229C389.764 385.873 431.112 373.525 445.9 350.801C445.905 350.794 445.908 350.788 445.913 350.781C451.781 341.601 454.735 332.175 454.691 322.765C454.655 314.819 452.467 308.575 450.64 304.735C449.552 302.447 449.174 299.886 449.548 297.327C450.333 291.967 451.296 283.512 451.528 273.209C451.319 273.261 451.109 273.312 450.899 273.366C440.923 275.879 430.819 279.505 420.868 284.142C408.695 289.815 396.714 297.028 385.247 305.585L250.084 313.417C249.097 313.473 248.212 314.046 247.754 314.924L241.799 326.321C230.541 327.804 219.173 330.771 207.988 335.148C204.309 336.588 200.646 338.184 197.016 339.922C198.413 343.568 200.259 347.193 202.552 350.779C202.557 350.786 202.56 350.793 202.563 350.799V350.801Z" fill="#242A38"/>
<path d="M410.731 181.121C410.731 181.121 408.888 160.379 429.015 148.396C449.142 136.413 454.971 135.154 459.714 116.912C464.458 98.6682 463.859 88.158 463.859 88.158C463.859 88.158 486.659 87.2263 492.345 106C492.345 106 495.623 125.384 477.904 143.504C460.184 161.624 444.824 167.381 443.223 185.111C441.623 202.842 409.201 192.766 410.732 181.121H410.731Z" fill="#F77B61"/>
<path opacity="0.6" d="M415.848 182.146C415.848 182.146 414.006 161.404 434.133 149.421C454.26 137.438 460.089 136.18 464.832 117.937C469.575 99.6934 468.977 89.1832 468.977 89.1832C468.977 89.1832 471.103 89.098 474.215 89.5104C468.556 87.966 463.861 88.158 463.861 88.158C463.861 88.158 464.459 98.6699 459.716 116.912C454.973 135.156 449.143 136.413 429.017 148.396C408.89 160.379 410.732 181.121 410.732 181.121C409.874 187.654 419.702 193.693 428.778 194.604C421.505 192.432 415.152 187.452 415.848 182.146Z" fill="white"/>
<path opacity="0.3" d="M492.347 105.999C489.663 97.1401 483.17 92.6722 477.059 90.4199C480.461 93.0395 483.399 96.7511 484.991 102.012C484.991 102.012 488.27 121.396 470.549 139.517C452.829 157.637 437.468 163.394 435.867 181.123C434.949 191.29 423.899 192.313 414.926 189.141C423.469 196.063 442.022 198.416 443.221 185.111C444.821 167.379 460.181 161.622 477.902 143.504C495.622 125.383 492.345 105.999 492.345 105.999H492.347Z" fill="#242A38"/>
<path d="M431.113 197.538C424.922 197.538 418.232 195.149 413.832 191.86C409.627 188.716 407.533 184.891 407.906 181.056C407.832 179.757 407.709 174.686 409.635 168.422C411.656 161.85 416.409 152.621 427.576 145.972C430.02 144.516 432.291 143.197 434.294 142.035C449.128 133.418 453.116 131.103 456.99 116.201C461.568 98.5902 461.053 88.4189 461.048 88.3188C461.005 87.5641 461.266 86.8245 461.773 86.2635C462.279 85.7042 462.989 85.3702 463.744 85.3402C463.998 85.3302 470.031 85.1114 476.848 87.3604C486.145 90.4258 492.434 96.5884 495.036 105.182C495.071 105.295 495.098 105.412 495.118 105.529C495.154 105.748 496.006 110.97 494.528 118.502C493.18 125.368 489.552 135.621 479.91 145.48C474.404 151.111 469.121 155.568 464.46 159.501C453.964 168.358 447.029 174.209 446.022 185.367C445.572 190.346 442.947 194.151 438.629 196.082C436.366 197.094 433.784 197.54 431.11 197.54L431.113 197.538ZM466.674 91.0653C466.542 95.5198 465.806 104.663 462.437 117.621C460.235 126.092 457.716 131.251 453.742 135.422C449.837 139.523 444.778 142.461 437.117 146.911C435.127 148.068 432.871 149.378 430.452 150.817C422.796 155.376 417.625 161.782 415.083 169.861C413.157 175.977 413.53 180.829 413.535 180.876C413.554 181.081 413.549 181.281 413.522 181.485C413.287 183.28 414.626 185.412 417.199 187.335C422.712 191.458 431.476 193.102 436.338 190.927C438.815 189.818 440.151 187.831 440.419 184.853C441.634 171.382 450.109 164.231 460.838 155.18C465.401 151.328 470.576 146.964 475.894 141.526C482.781 134.484 487.176 126.456 488.957 117.666C490.151 111.767 489.703 107.478 489.592 106.616C485.62 93.9253 472.415 91.5077 466.676 91.0636L466.674 91.0653Z" fill="#242A38"/>
<path d="M416.21 181.679C416.21 181.679 436.432 172.622 455.45 177.574C474.467 182.526 510 168.862 516.873 151.553C516.873 151.553 527.023 163.427 531.776 179.055C531.776 179.055 507.587 199.314 486.122 201.66C464.658 204.007 450.763 194.405 435.348 202.06C419.932 209.715 408.198 185.601 416.209 181.679H416.21Z" fill="#F77B61"/>
<path opacity="0.6" d="M418.599 185.611C418.599 185.611 438.821 176.554 457.839 181.506C476.856 186.458 512.389 172.794 519.263 155.485C519.263 155.485 521.695 158.331 524.735 163.068C520.689 156.016 516.875 151.553 516.875 151.553C510 168.862 474.467 182.526 455.451 177.574C436.434 172.622 416.212 181.679 416.212 181.679C412.009 183.738 413.243 191.36 417.595 197.03C415.351 192.216 415.317 187.217 418.599 185.61V185.611Z" fill="white"/>
<path opacity="0.3" d="M528.623 170.676C525.149 173.489 503.163 190.728 483.457 192.882C461.992 195.229 448.098 185.627 432.684 193.282C424.494 197.35 417.344 192.449 413.64 186.374C413.328 194.366 423.19 208.1 435.353 202.06C450.769 194.404 464.661 204.005 486.128 201.659C507.593 199.311 531.781 179.054 531.781 179.054C530.885 176.11 529.799 173.299 528.624 170.676H528.623Z" fill="#242A38"/>
<path d="M429.319 206.367C426.247 206.367 423.216 205.422 420.413 203.546C417.539 201.622 414.983 198.734 413.214 195.413C411.484 192.167 410.64 188.8 410.831 185.93C411.045 182.761 412.516 180.351 414.975 179.146C415.003 179.133 415.033 179.118 415.061 179.104C415.278 179.007 420.466 176.703 428.091 175.015C435.173 173.448 445.792 172.145 456.157 174.843C464.598 177.042 477.432 175.301 489.65 170.3C502.173 165.175 511.373 157.777 514.259 150.51C514.623 149.592 515.44 148.933 516.411 148.771C517.384 148.609 518.369 148.968 519.01 149.717C519.44 150.22 529.597 162.223 534.467 178.231C534.797 179.315 534.447 180.492 533.579 181.218C533.326 181.43 527.272 186.477 518.467 191.882C506.525 199.211 495.744 203.444 486.426 204.464C476.868 205.509 468.742 204.274 461.573 203.183C452.1 201.744 444.616 200.606 436.596 204.588C434.204 205.775 431.746 206.367 429.316 206.367H429.319ZM417.409 184.232C416.842 184.531 416.519 185.228 416.448 186.307C416.206 189.912 418.996 195.815 423.54 198.856C426.91 201.113 430.464 201.34 434.1 199.534C443.708 194.762 452.798 196.144 462.419 197.607C469.583 198.696 476.99 199.823 485.818 198.856C503.271 196.947 523.033 182.348 528.504 178.066C525.362 168.761 520.358 160.974 517.326 156.763C515.31 159.897 512.454 162.932 508.794 165.831C504.128 169.526 498.243 172.877 491.779 175.523C485.455 178.111 478.786 179.944 472.492 180.826C465.789 181.764 459.652 181.584 454.742 180.305C437.334 175.772 418.522 183.751 417.41 184.233L417.409 184.232Z" fill="#242A38"/>
<path d="M448.099 297.063C446.762 294.256 446.313 291.109 446.762 288.032C448.388 276.921 451.176 249.412 444.58 220.715C437.093 223.264 428.606 225.901 419.345 228.35C425.872 245.056 432.563 276.273 422.36 295.552C416.345 306.922 396.694 313.31 376.514 316.898C367.469 318.506 358.136 316.264 350.846 310.664C343.758 305.219 334.292 301.893 323.895 301.893C313.497 301.893 304.031 305.219 296.944 310.664C289.653 316.264 280.319 318.506 271.276 316.898C251.095 313.31 231.445 306.922 225.429 295.552C215.361 276.527 221.744 245.879 228.186 229.02C218.968 226.682 210.63 224.188 203.344 221.773C197.18 250.077 200.032 277.039 201.685 288.02C202.15 291.104 201.703 294.261 200.364 297.078C196.984 304.189 192.17 320.414 204.927 340.371C219.348 362.53 260.755 374.547 290.668 380.531C312.609 384.92 335.193 384.922 357.143 380.572C387.271 374.603 429.094 362.582 443.55 340.371C456.317 320.399 451.487 304.164 448.105 297.061L448.099 297.063Z" fill="#4D5A78"/>
<path d="M244.426 201.34C271.059 207.145 302.205 210.633 326.069 210.324C349.969 210.403 379.572 206.078 404.386 199.811C415.428 197.119 425.526 194.045 433.967 191.214C418.082 160.488 386.183 134.754 323.89 134.754C261.596 134.754 228.329 161.713 212.969 193.391C222.067 196.072 232.819 198.924 244.425 201.34H244.426Z" fill="#4D5A78"/>
<path opacity="0.3" d="M380.346 193.184C360.163 198.7 319.874 208.245 279.906 207.369C296.206 209.422 312.343 210.501 326.07 210.322C349.97 210.401 379.573 206.076 404.387 199.809C415.427 197.117 425.527 194.043 433.968 191.213C433.943 191.165 433.918 191.117 433.893 191.068L433.873 191.03C433.182 189.699 432.46 188.377 431.707 187.066C431.702 187.058 431.697 187.049 431.692 187.039C431.126 186.053 430.541 185.074 429.938 184.101C429.936 184.097 429.935 184.094 429.933 184.092C429.733 183.77 429.532 183.448 429.327 183.126C429.327 183.124 429.325 183.122 429.323 183.121C428.707 182.151 428.072 181.189 427.417 180.234C427.414 180.229 427.411 180.224 427.408 180.219C426.536 178.947 425.63 177.689 424.69 176.447C424.689 176.444 424.685 176.441 424.684 176.437C416.663 165.849 406.103 156.425 392.266 149.228C375.033 140.262 352.717 134.752 323.892 134.752C311.629 134.752 300.55 135.75 290.54 137.587C298.029 136.722 306.064 136.263 314.682 136.263C354.012 136.263 381.224 145.805 399.942 160.03C406.552 172.21 406.468 186.043 380.348 193.182L380.346 193.184Z" fill="#242A38"/>
<path opacity="0.3" d="M448.096 297.063C446.76 294.257 446.31 291.109 446.76 288.032C448.386 276.921 451.17 249.412 444.574 220.717C442.12 221.552 439.56 222.396 436.899 223.241C441.481 247.302 439.033 269.408 437.551 278.831C437.101 281.693 437.551 284.62 438.887 287.231C442.269 293.836 447.097 308.938 434.332 327.514C419.878 348.174 378.053 359.353 347.925 364.907C325.975 368.952 303.391 368.95 281.449 364.868C254.78 359.906 218.976 350.484 201.305 333.893C202.311 336.004 203.507 338.166 204.92 340.375C219.341 362.534 260.748 374.55 290.661 380.534C312.602 384.924 335.186 384.925 357.136 380.576C387.264 374.607 429.087 362.586 443.543 340.375C456.31 320.403 451.48 304.168 448.098 297.065L448.096 297.063Z" fill="#242A38"/>
<path opacity="0.6" d="M218.113 194.871C233.855 164.115 265.644 138.342 327.983 138.342C367.617 138.342 394.946 148.76 413.675 164.252C394.905 146.8 366.513 134.752 323.89 134.752C260.13 134.752 228.329 161.711 212.969 193.389C214.63 193.878 216.346 194.374 218.112 194.871H218.113Z" fill="white"/>
<path opacity="0.6" d="M209.013 343.961C196.256 324.004 201.069 307.779 204.449 300.668C205.789 297.851 206.235 294.694 205.771 291.61C204.076 280.357 201.124 252.319 207.906 223.253C206.342 222.759 204.816 222.264 203.337 221.773C197.172 250.077 200.025 277.039 201.677 288.02C202.142 291.104 201.696 294.262 200.356 297.078C196.976 304.189 192.163 320.414 204.919 340.371C207.595 344.482 211.198 348.244 215.485 351.681C212.968 349.255 210.787 346.686 209.013 343.961Z" fill="white"/>
<path opacity="0.6" d="M422.356 295.553C416.34 306.923 396.69 313.311 376.509 316.899C367.465 318.507 358.13 316.264 350.841 310.664C343.754 305.22 334.288 301.894 323.89 301.894C313.493 301.894 304.027 305.22 296.939 310.664C289.649 316.264 280.314 318.507 271.271 316.899C251.091 313.311 231.441 306.923 225.425 295.553C221.974 289.031 220.457 281.146 220.212 272.916C219.929 282.9 221.286 292.688 225.425 300.51C231.441 311.88 251.091 318.268 271.271 321.856C280.316 323.464 289.651 321.221 296.939 315.621C304.027 310.177 313.493 306.851 323.89 306.851C334.288 306.851 343.754 310.177 350.841 315.621C358.132 321.221 367.466 323.464 376.509 321.856C396.69 318.268 416.34 311.88 422.356 300.51C426.495 292.688 427.852 282.902 427.569 272.916C427.324 281.146 425.806 289.031 422.356 295.553Z" fill="white"/>
<path d="M416.873 228.994C390.302 235.958 357.655 241.216 326.205 241.209C291.183 241.486 257.395 236.302 230.671 229.644C229.833 229.437 229.003 229.229 228.179 229.019C221.738 245.879 215.355 276.526 225.421 295.552C231.437 306.922 251.088 313.31 271.268 316.898C280.313 318.506 289.647 316.263 296.936 310.663C304.023 305.219 313.49 301.893 323.887 301.893C334.285 301.893 343.751 305.219 350.838 310.663C358.128 316.263 367.463 318.506 376.506 316.898C396.686 313.31 416.337 306.922 422.353 295.552C432.555 276.273 425.865 245.056 419.337 228.35C418.519 228.567 417.698 228.78 416.87 228.994H416.873Z" fill="#FBBDB0"/>
<path d="M255.08 266.322C255.08 266.322 245.473 295.686 264.359 299.12C283.778 302.653 284.963 274.428 284.963 274.428C272.129 275.35 255.078 266.324 255.078 266.324L255.08 266.322Z" fill="#242A38"/>
<path d="M275.135 281.338C273.152 281.009 271.148 283.143 270.66 286.107C270.17 289.068 271.379 291.737 273.362 292.065C275.344 292.394 277.349 290.261 277.837 287.297C278.325 284.333 277.117 281.667 275.135 281.338Z" fill="white"/>
<path opacity="0.35" d="M258.486 281.039C257.471 281.049 256.666 282.941 256.688 285.267C256.71 287.591 257.549 289.469 258.564 289.459C259.578 289.449 260.383 287.557 260.361 285.231C260.34 282.907 259.5 281.029 258.486 281.039Z" fill="white"/>
<path d="M289.781 275.75L289.423 275.963L289.18 276.099C289.023 276.184 288.878 276.257 288.73 276.334L288.298 276.534L287.878 276.713C287.737 276.775 287.602 276.823 287.462 276.875C287.324 276.925 287.184 276.98 287.047 277.025C286.774 277.112 286.497 277.209 286.226 277.282C285.134 277.595 284.05 277.803 282.977 277.925C280.828 278.184 278.72 278.127 276.671 277.893C274.624 277.653 272.634 277.261 270.694 276.77C268.748 276.292 266.87 275.659 265.029 274.98L263.655 274.457L262.304 273.896L261.63 273.612C261.407 273.514 261.189 273.41 260.967 273.309L259.646 272.699C259.206 272.497 258.778 272.272 258.343 272.06C257.912 271.843 257.477 271.632 257.049 271.41L255.779 270.724C255.358 270.492 254.931 270.272 254.518 270.026L253.275 269.305C252.862 269.063 252.446 268.829 252.043 268.57L250.828 267.809C250.425 267.555 250.018 267.306 249.624 267.038L248.436 266.243C248.043 265.974 247.643 265.719 247.258 265.44C246.482 264.89 245.717 264.328 244.949 263.775C244.234 263.259 244.071 262.261 244.586 261.544C245.04 260.912 245.87 260.71 246.552 261.027L246.59 261.045C247.429 261.436 248.271 261.817 249.104 262.212C249.938 262.601 250.79 262.957 251.623 263.339C253.305 264.074 254.996 264.77 256.692 265.431C257.539 265.764 258.4 266.054 259.245 266.376C259.671 266.528 260.099 266.669 260.526 266.815C260.954 266.957 261.377 267.113 261.807 267.243L263.095 267.637C263.31 267.702 263.523 267.77 263.738 267.832L264.384 268.011L265.671 268.373L266.962 268.694C268.683 269.108 270.407 269.45 272.12 269.694C273.832 269.939 275.537 270.09 277.208 270.11C277.416 270.11 277.624 270.113 277.832 270.118C278.041 270.123 278.246 270.111 278.452 270.11L279.069 270.103L279.678 270.076C280.491 270.051 281.286 269.984 282.064 269.906C282.844 269.829 283.597 269.711 284.316 269.58C284.675 269.515 285.021 269.438 285.346 269.365L285.584 269.31L285.804 269.253L285.994 269.208L286.066 269.193C286.066 269.193 286.072 269.196 286.076 269.2L286.081 269.203L286.017 269.245C287.81 268.205 290.106 268.817 291.145 270.615C292.183 272.414 291.572 274.713 289.778 275.755L289.781 275.75Z" fill="#242A38"/>
<path d="M385.246 266.318C385.246 266.318 394.853 295.682 375.967 299.116C356.548 302.649 355.363 274.424 355.363 274.424C368.196 275.346 385.248 266.32 385.248 266.32L385.246 266.318Z" fill="#242A38"/>
<path d="M365.194 281.332C367.176 281.003 369.181 283.137 369.669 286.101C370.159 289.063 368.949 291.731 366.967 292.06C364.984 292.388 362.98 290.255 362.492 287.293C362.002 284.331 363.211 281.663 365.194 281.334V281.332Z" fill="white"/>
<path opacity="0.35" d="M381.841 281.033C382.856 281.043 383.66 282.935 383.639 285.261C383.617 287.585 382.777 289.463 381.763 289.453C380.748 289.443 379.944 287.551 379.965 285.226C379.987 282.902 380.827 281.023 381.841 281.033Z" fill="white"/>
<path d="M350.546 275.744L350.904 275.957L351.147 276.093C351.304 276.178 351.449 276.251 351.597 276.328L352.028 276.528L352.448 276.707C352.59 276.769 352.725 276.817 352.865 276.869C353.003 276.919 353.143 276.974 353.28 277.019C353.553 277.106 353.829 277.203 354.101 277.276C355.192 277.589 356.277 277.797 357.35 277.919C359.499 278.178 361.606 278.121 363.655 277.888C365.703 277.647 367.692 277.255 369.633 276.764C371.579 276.286 373.457 275.654 375.298 274.974L376.672 274.451L378.023 273.89L378.696 273.607C378.919 273.508 379.138 273.405 379.359 273.303L380.68 272.693C381.12 272.491 381.548 272.266 381.983 272.054C382.415 271.837 382.85 271.626 383.278 271.404L384.547 270.718C384.969 270.486 385.395 270.266 385.808 270.02L387.051 269.299C387.464 269.057 387.881 268.823 388.284 268.564L389.499 267.803C389.902 267.549 390.308 267.3 390.703 267.032L391.891 266.237C392.284 265.968 392.684 265.713 393.069 265.434C393.845 264.885 394.61 264.322 395.378 263.769C396.093 263.253 396.256 262.255 395.741 261.539C395.286 260.906 394.457 260.704 393.775 261.021L393.737 261.039C392.897 261.43 392.056 261.811 391.223 262.206C390.388 262.595 389.537 262.951 388.704 263.333C387.021 264.068 385.33 264.764 383.634 265.425C382.788 265.758 381.927 266.048 381.082 266.37C380.655 266.522 380.227 266.663 379.801 266.81C379.373 266.951 378.949 267.107 378.52 267.237L377.232 267.631C377.017 267.696 376.804 267.765 376.589 267.826L375.942 268.005L374.656 268.367L373.365 268.686C371.644 269.1 369.92 269.443 368.207 269.686C366.494 269.932 364.79 270.082 363.119 270.102C362.911 270.102 362.703 270.105 362.494 270.11C362.286 270.115 362.081 270.104 361.875 270.102L361.258 270.095L360.648 270.069C359.835 270.044 359.041 269.977 358.263 269.898C357.483 269.822 356.73 269.703 356.01 269.573C355.652 269.508 355.305 269.431 354.981 269.357L354.742 269.302L354.522 269.246L354.333 269.2L354.261 269.185C354.261 269.185 354.254 269.189 354.251 269.192L354.246 269.195L354.309 269.237C352.517 268.197 350.221 268.81 349.181 270.608C348.143 272.406 348.755 274.705 350.549 275.747L350.546 275.744Z" fill="#242A38"/>
<path d="M323.979 386.665C312.653 386.665 301.339 385.543 290.11 383.296C258.32 376.937 217.326 364.595 202.564 341.911C202.56 341.905 202.555 341.898 202.552 341.891C196.688 332.718 193.735 323.299 193.774 313.895C193.807 305.951 195.991 299.705 197.817 295.865C198.908 293.569 199.282 291.003 198.895 288.442C197.302 277.865 194.28 250.138 200.588 221.173C200.919 219.652 202.419 218.687 203.938 219.019C205.456 219.352 206.419 220.854 206.087 222.377C199.978 250.425 202.915 277.334 204.461 287.602C205.016 291.28 204.475 294.979 202.899 298.294C199.468 305.507 195.478 320.363 207.283 338.841C213.411 348.251 225.445 356.686 243.048 363.91C256.372 369.378 272.577 374.04 291.212 377.768C312.868 382.101 334.864 382.114 356.591 377.81C375.385 374.087 391.725 369.423 405.158 363.954C422.921 356.719 435.041 348.271 441.18 338.843C452.992 320.357 448.994 305.495 445.559 298.281C443.988 294.98 443.441 291.297 443.978 287.626C445.509 277.162 448.366 249.757 441.837 221.352C441.488 219.834 442.433 218.32 443.947 217.971C445.462 217.622 446.973 218.569 447.321 220.086C454.065 249.426 451.125 277.666 449.547 288.445C449.172 291.005 449.55 293.566 450.638 295.853C452.466 299.693 454.653 305.938 454.69 313.884C454.733 323.294 451.779 332.72 445.912 341.9C445.907 341.906 445.903 341.913 445.898 341.92C431.111 364.643 389.762 376.99 357.68 383.348C346.49 385.565 335.227 386.674 323.977 386.674L323.979 386.665Z" fill="#242A38"/>
<path d="M212.967 195.955C212.593 195.955 212.211 195.872 211.851 195.697C210.58 195.077 210.05 193.543 210.668 192.271C219.428 174.205 232.313 159.98 248.966 149.993C268.664 138.178 293.872 132.189 323.89 132.189C353.908 132.189 378.067 137.926 397.611 149.241C414.219 158.857 427.215 172.581 436.238 190.035C436.888 191.292 436.398 192.84 435.144 193.491C433.889 194.142 432.345 193.651 431.695 192.394C412.799 155.848 376.529 137.319 323.89 137.319C271.251 137.319 233.672 156.561 215.271 194.513C214.828 195.426 213.917 195.957 212.969 195.957L212.967 195.955Z" fill="#242A38"/>
<path d="M277.01 320.226C274.935 320.226 272.849 320.044 270.776 319.677C259.221 317.621 249.518 314.952 241.938 311.743C232.415 307.711 226.021 302.708 222.934 296.875C219.555 290.488 217.691 282.501 217.397 273.134C217.154 265.387 217.969 256.899 219.82 247.903C222.874 233.062 228.646 218.351 232.685 215.114C234.624 213.559 239.14 212.065 258.891 211.658C271.536 211.397 287.26 211.649 301.132 211.873C309.564 212.008 317.528 212.137 323.888 212.137C330.249 212.137 338.213 212.008 346.644 211.873C360.517 211.649 376.241 211.397 388.886 211.658C408.636 212.065 413.153 213.559 415.092 215.114C419.132 218.353 424.903 233.062 427.957 247.903C429.808 256.899 430.623 265.387 430.379 273.134C430.084 282.501 428.222 290.488 424.843 296.875C421.756 302.708 415.364 307.711 405.841 311.743C398.26 314.952 388.558 317.621 377.002 319.677C367.168 321.425 357.008 318.957 349.13 312.903C342.256 307.622 333.293 304.715 323.89 304.715C314.487 304.715 305.524 307.624 298.65 312.903C292.431 317.681 284.791 320.226 277.012 320.226H277.01ZM271.051 217.187C266.966 217.187 263.021 217.217 259.341 217.289C252.598 217.423 247.4 217.683 243.449 218.084C237.531 218.685 236.31 219.443 236.19 219.526C235.577 220.017 233.734 222.629 231.237 228.923C228.876 234.869 226.78 242.014 225.334 249.042C223.103 259.884 220.47 280.174 227.908 294.232C232.53 302.964 247.694 309.843 271.761 314.122C280.044 315.594 288.596 313.519 295.225 308.427C303.075 302.396 313.254 299.074 323.888 299.074C334.522 299.074 344.702 302.394 352.552 308.427C359.181 313.519 367.733 315.596 376.016 314.122C400.083 309.843 415.247 302.964 419.868 294.232C427.307 280.174 424.675 259.886 422.442 249.042C420.996 242.014 418.9 234.869 416.54 228.923C414.052 222.657 412.215 220.041 411.582 219.523C411.437 219.425 410.174 218.678 404.328 218.084C400.376 217.683 395.178 217.423 388.436 217.289C375.953 217.042 360.429 217.291 346.733 217.511C338.278 217.646 330.292 217.775 323.887 217.775C317.481 217.775 309.496 217.646 301.041 217.511C291.383 217.356 280.817 217.186 271.049 217.186L271.051 217.187Z" fill="#242A38"/>
<path opacity="0.3" d="M230.782 239.217C245.173 242.835 260.164 245.676 275.34 247.66C291.676 249.795 307.845 250.876 323.449 250.876C324.338 250.876 325.226 250.872 326.113 250.866H326.164C354.508 250.866 386.637 246.496 416.627 238.562C426.173 236.086 435.879 233.141 445.473 229.808C446.048 229.608 446.585 229.329 447.074 228.989C446.183 224.431 445.114 220.006 443.859 215.737C441.645 208.198 438.864 201.133 435.539 194.579C434.783 194.564 434.018 194.68 433.277 194.935C422.981 198.461 412.761 201.478 402.902 203.904C402.895 203.906 402.887 203.908 402.88 203.909C376.977 210.513 348.226 214.408 325.978 214.338C325.961 214.338 325.948 214.338 325.933 214.338C302.819 214.64 272.061 211.222 245.675 205.419C245.666 205.417 245.658 205.415 245.65 205.414C235.187 203.216 224.247 200.401 213.128 197.049C212.511 196.863 211.88 196.773 211.253 196.77C208.431 202.692 206.04 209.018 204.101 215.715C202.755 220.36 201.626 225.189 200.711 230.176C201.126 230.428 201.569 230.638 202.04 230.798C211.373 233.966 221.046 236.799 230.784 239.218L230.782 239.217Z" fill="#242A38"/>
<path d="M448.393 217.073C448.208 218.564 447.194 219.818 445.776 220.306C437.351 223.204 427.605 226.238 416.874 228.994C390.303 235.958 357.656 241.216 326.205 241.209C291.184 241.486 257.396 236.302 230.672 229.644C219.828 226.976 210.14 224.066 201.876 221.287C200.597 220.857 199.624 219.803 199.307 218.488C198.641 215.711 198.088 211.303 199.467 206.259C201.242 199.768 205.275 195.672 207.787 193.625C208.789 192.809 210.131 192.545 211.369 192.916C220.796 195.732 232.133 198.781 244.428 201.341C271.061 207.146 302.206 210.634 326.07 210.325C349.971 210.403 379.574 206.079 404.387 199.811C416.008 196.978 426.585 193.724 435.283 190.772C436.655 190.306 438.167 190.638 439.222 191.632C441.551 193.822 444.756 197.544 446.78 203.012C448.885 208.699 448.8 213.811 448.397 217.073H448.393Z" fill="#F77B61"/>
<path opacity="0.6" d="M199.467 210.704C201.241 204.212 205.275 200.117 207.787 198.07C208.788 197.253 210.131 196.99 211.369 197.36C220.795 200.177 232.132 203.226 244.428 205.785C271.06 211.59 302.206 215.078 326.07 214.769C349.97 214.848 379.574 210.523 404.387 204.256C416.008 201.422 426.585 198.168 435.283 195.216C436.654 194.751 438.167 195.083 439.222 196.076C441.551 198.267 444.756 201.988 446.78 207.456C447.86 210.375 448.363 213.141 448.543 215.584C448.779 212.355 448.588 207.895 446.78 203.012C444.756 197.544 441.551 193.822 439.222 191.632C438.165 190.638 436.654 190.306 435.283 190.772C426.585 193.724 416.008 196.978 404.387 199.811C379.572 206.079 349.97 210.403 326.07 210.325C302.208 210.634 271.062 207.146 244.428 201.341C232.132 198.783 220.795 195.734 211.369 192.916C210.131 192.547 208.79 192.809 207.787 193.625C205.276 195.672 201.243 199.768 199.467 206.259C198.587 209.473 198.494 212.428 198.714 214.868C198.834 213.547 199.071 212.151 199.467 210.704Z" fill="white"/>
<path opacity="0.3" d="M199.309 218.488C199.623 219.804 200.598 220.857 201.878 221.288C210.141 224.066 219.829 226.976 230.673 229.644C257.397 236.303 291.185 241.487 326.206 241.21C357.657 241.216 390.304 235.959 416.875 228.995C427.606 226.237 437.352 223.205 445.777 220.306C447.195 219.819 448.211 218.565 448.394 217.074C448.601 215.399 448.724 213.235 448.509 210.756C439.235 214.095 428.023 217.733 415.429 220.986C389.276 227.873 357.136 233.077 326.168 233.07C291.687 233.344 258.423 228.217 232.119 221.635C219.104 218.419 207.787 214.851 198.636 211.589C198.517 214.366 198.889 216.746 199.307 218.488H199.309Z" fill="#242A38"/>
<path d="M323.524 244.038C307.776 244.038 291.455 242.958 274.965 240.822C259.648 238.839 244.516 235.997 229.992 232.379C220.164 229.96 210.399 227.127 200.98 223.959C198.762 223.213 197.115 221.413 196.57 219.144C195.813 215.992 195.232 211.068 196.751 205.512C198.651 198.564 202.834 194.021 206.009 191.435C207.734 190.031 210.036 189.574 212.17 190.211C223.392 193.566 234.436 196.379 244.997 198.576C245.006 198.578 245.014 198.579 245.024 198.581C271.655 204.386 302.701 207.804 326.032 207.5C326.047 207.5 326.062 207.5 326.077 207.5C348.531 207.57 377.553 203.675 403.697 197.072C403.704 197.07 403.712 197.068 403.719 197.067C413.672 194.641 423.986 191.622 434.377 188.098C436.734 187.298 439.326 187.862 441.144 189.572C443.706 191.981 447.22 196.098 449.416 202.029C451.692 208.178 451.635 213.791 451.185 217.418C450.87 219.959 449.106 222.139 446.689 222.971C437.004 226.303 427.208 229.249 417.572 231.725C387.302 239.657 354.872 244.028 326.263 244.028H326.212C325.319 244.035 324.421 244.038 323.523 244.038H323.524ZM210.246 195.569C209.999 195.569 209.756 195.653 209.561 195.811C207.026 197.878 203.687 201.496 202.181 207.003C200.978 211.404 201.441 215.317 202.043 217.827C202.131 218.196 202.403 218.488 202.771 218.612C212.044 221.73 221.657 224.519 231.341 226.903C252.549 232.186 285.549 238.398 323.451 238.398C324.361 238.398 325.267 238.395 326.182 238.388C326.19 238.388 326.197 238.388 326.205 238.388H326.265C354.407 238.388 386.329 234.084 416.162 226.265C425.667 223.822 435.318 220.921 444.863 217.636C445.266 217.498 445.549 217.149 445.602 216.725C445.974 213.721 446.022 209.073 444.141 203.991C442.327 199.089 439.418 195.681 437.296 193.686C436.996 193.404 436.571 193.31 436.184 193.44C425.642 197.017 415.173 200.08 405.065 202.545C378.744 209.193 349.511 213.142 326.703 213.144C326.493 213.144 326.29 213.144 326.082 213.144C325.115 213.155 324.134 213.162 323.143 213.162C299.794 213.162 269.746 209.743 243.838 204.098C233.127 201.869 221.933 199.015 210.564 195.618C210.459 195.586 210.353 195.571 210.246 195.571V195.569Z" fill="#242A38"/>
</g>
<defs>
<clipPath id="clip0_11713_39580">
<rect width="565" height="566" fill="white" transform="translate(42)"/>
</clipPath>
</defs>
</svg>
